<svg width="392" height="395" viewBox="0 0 392 395" fill="none" xmlns="http://www.w3.org/2000/svg">
<path fill-rule="evenodd" clip-rule="evenodd" d="M386.831 394L384.66 393.202C384.756 392.942 394.153 367.048 386.931 351.52C384.694 346.715 381.05 343.367 376.096 341.569C366.722 338.162 355.853 349.723 344.35 361.96C332.271 374.81 318.59 389.363 303.679 389.364C303.585 389.364 303.491 389.363 303.396 389.361C295.493 389.264 288.09 385.237 280.766 377.049C268.68 363.536 265.838 341.219 272.55 312.508C277.583 290.977 286.289 273.178 286.376 273L288.452 274.02C288.109 274.717 254.425 344.132 282.493 375.511C289.36 383.188 296.207 386.963 303.424 387.052C303.51 387.053 303.594 387.054 303.677 387.054C317.59 387.054 330.905 372.888 342.663 360.38C354.703 347.572 366.075 335.472 376.886 339.398C382.441 341.414 386.527 345.167 389.03 350.551C396.656 366.953 387.236 392.903 386.831 394Z" fill="#DDE3F3"/>
<path fill-rule="evenodd" clip-rule="evenodd" d="M222.328 33.8783C216.722 14.5193 197.336 4.13432 181.063 0.869042C167.829 -1.78508 156.886 1.64688 148.534 11.0735C140.517 20.1227 137.153 32.3389 135.862 38.8162C133.666 49.8332 126.098 77.3756 113.178 102.758C95.7533 136.992 74.984 156.062 51.449 159.435C33.4615 162.01 21.5094 159.379 15.9274 151.611C6.60592 138.637 17.8703 115.121 19.1857 112.483C20.2933 110.261 22.6009 107.015 25.2719 103.257C36.4844 87.4863 55.2496 61.0897 35.0802 42.7817C27.4583 35.8623 15.2882 37.1042 2 42.2111V44.6812C14.8428 39.55 26.4914 38.1089 33.5319 44.4994C52.1782 61.4231 34.1595 86.7698 23.3935 101.913C20.666 105.75 18.3099 109.064 17.1215 111.447C14.8705 115.962 4.14951 139.177 14.0559 152.965C20.1779 161.488 32.8707 164.436 51.7767 161.725C76.0974 158.24 97.4471 138.755 115.234 103.81C128.268 78.2032 135.907 50.3969 138.125 39.2711C139.37 33.0229 142.602 21.2524 150.258 12.6118C158.029 3.84379 168.238 0.656065 180.611 3.13888C196.219 6.26989 214.794 16.1606 220.112 34.5242C227.605 60.3929 207.4 97.2532 161.674 141.132C159.362 142.517 123.71 164.015 90.5128 193.277C44.4178 233.909 24.7423 269.345 32.0331 298.602C35.9202 314.203 42.7714 322.558 52.3951 323.438C52.9593 323.489 53.5235 323.515 54.0981 323.515C82.3082 323.508 122.567 262.351 126.505 253.658C127.916 250.546 133.42 248.14 139.036 248.23C141.778 248.263 148.434 248.995 151.012 255.07C153.777 261.584 153.125 278.17 117.691 316.049C89.0694 346.646 64.6564 361.667 45.1401 360.638C30.3024 359.87 22.6228 349.747 19.7314 345.936C19.4706 345.591 19.2445 345.294 19.0541 345.055C16.0601 341.299 7.46203 325.833 2 315.82V320.638C7.40088 330.465 14.484 343.031 17.2519 346.501C17.4331 346.728 17.6477 347.01 17.8946 347.338C20.9648 351.382 29.1152 362.126 45.0201 362.95C45.672 362.984 46.3262 363 46.9862 363C66.8613 363 91.2016 347.75 119.375 317.632C153.886 280.741 156.782 262.754 153.135 254.162C150.946 249.002 145.817 245.996 139.063 245.915C132.379 245.857 126.223 248.689 124.405 252.701C119.096 264.42 78.173 323.481 52.604 321.132C44.0636 320.352 37.8955 312.583 34.2714 298.041C25.475 262.737 60.8155 222.541 92.0127 195.037C126.007 165.068 162.597 143.274 162.964 143.056L163.174 142.896C210.289 97.7081 230.191 61.0284 222.328 33.8783Z" fill="#DDE3F3"/>
<path fill-rule="evenodd" clip-rule="evenodd" d="M289.726 259.364H107.726L67 258V393H291L289.726 259.364Z" fill="white"/>
<path fill-rule="evenodd" clip-rule="evenodd" d="M195.002 141.142C193.363 142.69 192.914 144.793 193.226 149.476C193.344 151.279 193.359 151.705 193.814 153.718C193.998 154.536 193.629 157.288 193.132 158.39C192.684 159.383 193.434 160.505 194.519 160.491C195.308 160.48 196.058 160.483 196.075 160.532C197.188 163.733 197.959 165.81 199.631 167.311C201.462 168.955 204.275 169.367 206.251 169.044C206.261 169.042 206.274 169.044 206.283 169.038C206.378 168.98 208.6 173.411 208.6 173.411L209.725 176L209.989 175.869C210.044 175.842 215.507 173.085 220.897 165.572L221 165.428L217.079 158.159C217.012 158.033 217.039 157.879 217.147 157.788C217.203 157.741 217.344 157.665 217.495 157.585C218.126 157.251 219.302 156.629 219.987 155.093C220.621 153.672 220.853 151.449 220.031 150.129C219.581 149.408 218.855 149.012 217.927 148.982C215.412 148.906 215.11 152.665 215.098 152.826C215.098 152.826 213.092 141.615 208.716 139.048C203.21 135.818 195.065 141.082 195.002 141.142Z" fill="white"/>
<path fill-rule="evenodd" clip-rule="evenodd" d="M98.7811 138.229C100.4 139.525 100.96 141.41 100.999 145.698C101.05 151.353 99.2831 159.343 96.3372 162.386C94.7656 164.01 92.2028 164.579 90.3588 164.422C90.3496 164.421 90.3392 164.425 90.3311 164.42C90.2388 164.373 88.4999 168.563 88.4999 168.563L87.6437 171L87.391 170.898C87.3391 170.877 82.1154 168.745 76.6263 162.276L76.5213 162.152L79.6276 155.26C79.6818 155.139 79.646 155.003 79.5399 154.926C79.4845 154.887 79.3495 154.828 79.2064 154.767C78.6017 154.506 77.4744 154.02 76.737 152.67C76.0528 151.418 75.6847 149.41 76.3516 148.15C76.714 147.463 77.3567 147.051 78.2083 146.961C80.5207 146.717 81.0607 150.119 81.0815 150.264C81.0815 150.264 82.1511 139.915 86.0029 137.273C90.8515 133.949 98.7188 138.18 98.7811 138.229Z" fill="white"/>
<path fill-rule="evenodd" clip-rule="evenodd" d="M98.1075 147.954C98.0355 149.059 98.1525 149.974 98.3695 150C98.5865 150.023 98.8205 149.149 98.8925 148.045C98.9645 146.941 98.8475 146.026 98.6305 146.001C98.4155 145.975 98.1805 146.85 98.1075 147.954Z" fill="#232D4B"/>
<path fill-rule="evenodd" clip-rule="evenodd" d="M88.6193 145.001C88.8882 145.034 89.0512 145.958 88.9855 147.061C88.9198 148.167 88.6482 149.034 88.381 148.999C88.1121 148.966 87.9483 148.043 88.0148 146.939C88.0805 145.834 88.3512 144.966 88.6193 145.001Z" fill="#232D4B"/>
<path fill-rule="evenodd" clip-rule="evenodd" d="M95.5099 149.092C95.5996 149.783 95.6893 150.474 95.7908 151.164L95.938 152.199C95.9585 152.382 95.9927 152.518 95.9985 152.756C96.0112 152.972 95.9419 153.206 95.8249 153.376C95.584 153.721 95.2494 153.85 94.9412 153.928C94.6252 153.992 94.3111 154.021 94 153.982C94.3043 153.905 94.6028 153.825 94.8768 153.686C95.1509 153.563 95.4104 153.381 95.5352 153.147C95.6669 152.916 95.5908 152.665 95.5196 152.29C95.4523 151.944 95.4006 151.594 95.346 151.245C95.2514 150.545 95.1802 149.838 95.1617 149.127C95.1392 148.418 95.1587 147.699 95.2806 147C95.3323 147.707 95.4299 148.398 95.5099 149.092Z" fill="#232D4B"/>
<path fill-rule="evenodd" clip-rule="evenodd" d="M87.5459 169.898C87.4941 169.876 82.2503 167.709 76.7125 161.062L76.6055 160.935L79.6689 153.79C79.7218 153.666 79.6858 153.525 79.5799 153.446C79.5236 153.406 79.3873 153.347 79.2432 153.283C78.6361 153.018 77.5054 152.525 76.7564 151.134C76.0638 149.846 75.6831 147.772 76.3397 146.467C76.699 145.753 77.3387 145.324 78.1912 145.224C80.5034 144.955 81.0677 148.469 81.0913 148.619C81.1127 148.764 81.0159 148.899 80.874 148.922C80.7332 148.946 80.5992 148.846 80.5766 148.701C80.5721 148.668 80.0698 145.539 78.2509 145.754C77.5707 145.834 77.0819 146.156 76.8026 146.711C76.2485 147.812 76.5762 149.693 77.2125 150.876C77.8736 152.106 78.8591 152.535 79.4481 152.793C79.634 152.874 79.7793 152.938 79.8818 153.012C80.1903 153.24 80.2985 153.647 80.1453 154.005L77.2137 160.843C81.9372 166.467 86.3994 168.781 87.4862 169.29L88.0302 167.657C87.2486 166.988 83.6378 163.717 83.2301 160.119C83.22 160.022 83.1997 159.843 83.3461 159.73C83.3878 159.699 83.5015 159.632 83.7031 159.723C83.7437 159.749 87.7824 162.418 90.4888 162.651C90.4967 162.652 90.5057 162.653 90.5147 162.653C92.2378 162.793 94.6221 162.233 96.066 160.672C98.9041 157.604 100.565 149.509 100.476 143.769C100.403 138.973 99.7207 137.55 98.4041 136.476C98.2903 136.385 98.2712 136.216 98.3624 136.102C98.4514 135.985 98.6147 135.967 98.7273 136.058C100.356 137.387 100.929 139.33 100.997 143.76C101.086 149.606 99.3715 157.873 96.4444 161.039C94.8823 162.728 92.3201 163.334 90.4741 163.185C90.464 163.184 90.4539 163.188 90.4449 163.183C90.3525 163.136 88.6406 167.476 88.6406 167.476L87.8004 170L87.5459 169.898Z" fill="#232D4B"/>
<path fill-rule="evenodd" clip-rule="evenodd" d="M88.9658 142.914C88.6493 142.935 88.3393 142.955 88.025 142.961C87.7129 142.964 87.3941 142.968 87.0619 142.942C86.7265 142.916 86.3854 142.885 86 142.774C86.2755 142.511 86.5976 142.347 86.9364 142.224C87.2763 142.112 87.6362 142.04 88.0039 142.037C88.3705 142.031 88.7437 142.077 89.098 142.199C89.4446 142.328 89.7989 142.513 90 142.836C89.6057 142.859 89.288 142.892 88.9658 142.914Z" fill="#232D4B"/>
<path fill-rule="evenodd" clip-rule="evenodd" d="M98.5316 142.883C98.3236 142.89 98.108 142.889 97.8613 142.903C97.739 142.905 97.6082 142.916 97.4655 142.916C97.3228 142.919 97.178 142.93 97 142.911C97.0568 142.767 97.1448 142.649 97.2392 142.532C97.3486 142.436 97.458 142.324 97.5953 142.251C97.8613 142.093 98.1916 142.006 98.5295 142C98.8695 142 99.2127 142.096 99.483 142.27C99.7479 142.446 99.9603 142.692 100 143C99.3425 142.903 98.9489 142.885 98.5316 142.883Z" fill="#232D4B"/>
<path fill-rule="evenodd" clip-rule="evenodd" d="M94.4977 156.35C95.0137 156.392 95.0306 156.393 94.9821 156.952C94.8965 157.916 94.0989 158.943 93.2978 158.987C90.5658 159.138 89.6566 157.944 89.073 156.939C88.8364 156.533 89.1631 155.923 90.2289 156.008C91.271 156.092 93.9637 156.307 94.4977 156.35Z" fill="#232D4B"/>
<path fill-rule="evenodd" clip-rule="evenodd" d="M94 157.267C94 157.267 93.5058 157.234 92.5152 157.167C91.0314 157.067 90.0419 157 90.0419 157L90 157.396C90 157.396 91.9382 157.926 92.9277 157.992C93.9173 158.059 93.9581 157.663 93.9581 157.663L94 157.267Z" fill="white"/>
<path fill-rule="evenodd" clip-rule="evenodd" d="M90.7077 163.45C90.717 163.453 90.7275 163.451 90.7368 163.452C92.6492 163.605 95.301 162.982 96.9195 161.246C97.667 160.444 98.3363 159.322 98.9217 158L98.9648 158.028C98.9648 158.028 98.3561 161.313 100.905 163.182C103.455 165.052 104.167 169.514 100.228 171.379C96.5638 173.111 89.0378 170.708 88 170.362L88.8384 167.862C88.8384 167.862 90.6121 163.4 90.7077 163.45Z" fill="#232D4B"/>
<path fill-rule="evenodd" clip-rule="evenodd" d="M64.4596 152.122C69.4279 149.898 66.1798 144.348 71.6761 142.168C77.4094 139.895 74.7569 137.147 77.6156 134.746C82.4842 130.659 85.8124 132.038 88.1248 129.819C92.1722 125.934 96.3915 126.287 97.1795 129.521C97.554 131.054 98.0579 131.705 98.0579 131.705C98.0579 131.705 104.297 133.283 102.755 138.96C102.31 140.597 101.881 141.623 100.862 142.498C100.557 139.833 100.339 136.119 96.1201 135.766C95.1489 140.964 88.3733 141.82 87.6312 141.919C82.7969 142.57 84.9454 147.419 80.6369 148.115C80.6369 148.115 78.407 143.72 76.1164 145.996C73.8258 148.273 76.4909 152.734 79.1823 153.882C79.4606 154.001 75.924 161 75.924 161C75.924 161 75.0994 160.777 74.4259 160.666C73.2623 160.476 71.3417 160.376 67.4419 160.819C62.0785 161.426 59.9334 154.147 64.4596 152.122Z" fill="#232D4B"/>
<path fill-rule="evenodd" clip-rule="evenodd" d="M197.083 153.109C197.303 154.211 197.891 155.058 198.398 154.997C198.905 154.937 199.137 153.994 198.917 152.891C198.697 151.789 198.109 150.942 197.604 151.003C197.097 151.063 196.863 152.006 197.083 153.109Z" fill="#232D4B"/>
<path fill-rule="evenodd" clip-rule="evenodd" d="M200 146.848C199.746 146.501 199.301 146.304 198.868 146.169C198.423 146.038 197.955 145.991 197.497 146.001C197.037 146.006 196.59 146.086 196.164 146.209C195.743 146.344 195.341 146.522 195 146.807C195.483 146.925 195.911 146.955 196.33 146.981C196.745 147.007 197.142 147 197.534 146.995C197.926 146.987 198.313 146.962 198.71 146.938C199.111 146.912 199.507 146.875 200 146.848Z" fill="#232D4B"/>
<path fill-rule="evenodd" clip-rule="evenodd" d="M210.2 177L210.476 176.869C210.532 176.841 216.223 174.074 221.892 166.427L222 166.281L218.021 158.78C217.951 158.65 217.981 158.493 218.093 158.401C218.153 158.352 218.3 158.276 218.455 158.197C219.114 157.862 220.338 157.236 221.066 155.669C221.74 154.217 222.003 151.939 221.167 150.576C220.709 149.831 219.962 149.417 219.002 149.377C218.966 149.376 218.93 149.375 218.894 149.375C216.384 149.375 216.041 153.125 216.027 153.287C216.014 153.446 216.133 153.587 216.294 153.6C216.452 153.615 216.595 153.495 216.608 153.335C216.612 153.301 216.922 149.863 218.977 149.956C219.745 149.988 220.314 150.299 220.67 150.879C221.374 152.027 221.156 154.091 220.537 155.425C219.893 156.811 218.827 157.356 218.19 157.681C217.988 157.784 217.829 157.865 217.721 157.954C217.395 158.225 217.305 158.675 217.504 159.051L221.314 166.23C216.475 172.702 211.669 175.566 210.496 176.204L209.76 174.478C210.581 173.69 214.36 169.856 214.534 165.924C214.538 165.818 214.547 165.622 214.376 165.511C214.327 165.482 214.195 165.417 214.02 165.505C213.933 165.565 209.599 168.8 206.592 169.252C204.677 169.539 201.97 169.124 200.234 167.546C198.789 166.232 197.418 163.831 196.266 160.604C196.136 160.241 195.698 160.301 195.192 160.372C194.746 160.435 194.135 160.519 193.849 160.311C193.438 160.014 193.607 159.025 193.698 158.702C193.737 158.489 194.502 154.145 194.24 152.182C194.118 151.276 194.033 150.398 193.987 149.574C193.694 144.37 194.345 142.773 195.733 141.503C195.853 141.395 195.86 141.212 195.751 141.094C195.64 140.975 195.458 140.969 195.339 141.076C193.621 142.646 193.135 144.799 193.404 149.606C193.451 150.446 193.538 151.338 193.662 152.257C193.912 154.133 193.139 158.529 193.131 158.573C193.09 158.711 192.698 160.196 193.505 160.781C193.982 161.126 194.699 161.026 195.273 160.946C195.432 160.924 195.638 160.921 195.752 160.895C196.582 163.199 197.947 166.266 199.841 167.974C202.965 170.79 207.263 170.405 207.263 170.405L209.065 174.331L210.2 177Z" fill="#232D4B"/>
<path fill-rule="evenodd" clip-rule="evenodd" d="M199.436 163.577C198.936 163.752 198.919 163.759 199.121 164.321C199.472 165.292 200.546 166.142 201.353 165.98C204.106 165.428 204.679 163.963 204.981 162.777C205.105 162.297 204.613 161.755 203.578 162.119C202.568 162.474 199.954 163.394 199.436 163.577Z" fill="#232D4B"/>
<path fill-rule="evenodd" clip-rule="evenodd" d="M200 164.298C200 164.298 200.479 164.135 201.437 163.811C202.872 163.325 203.83 163 203.83 163L204 163.454C204 163.454 202.255 164.559 201.299 164.884C200.341 165.207 200.17 164.753 200.17 164.753L200 164.298Z" fill="white"/>
<path fill-rule="evenodd" clip-rule="evenodd" d="M187.307 132.65C188.936 132.657 191.405 132.651 193.99 132.409C194.171 132.393 193.073 129.715 193.65 129.128C194.29 128.475 209.952 130.356 220.17 133.824C221.9 134.411 221.323 136.171 221.323 136.171C221.323 136.171 222.638 136.874 223.053 137.346C225.63 140.276 225.242 139.88 224.206 146.738C223.053 154.37 219.594 162 219.594 162L217.865 158.478C217.865 158.478 220.232 156.57 221.035 154.663C221.9 152.608 221.9 149.086 218.441 149.086C216.064 149.086 215.558 153.195 215.558 153.195L214.405 155.543L212.098 152.02C212.098 152.02 213.252 149.674 210.945 146.151C209.516 143.967 208.64 142.628 205.757 142.628C205.698 142.628 205.635 142.639 205.573 142.644C206.005 141.858 206.333 140.878 206.333 139.694C206.333 139.694 205.601 142.444 202.799 143.71C202.797 143.712 202.796 143.712 202.794 143.713C202.643 143.781 202.515 143.844 202.398 143.906C201.115 144.527 199.669 145.175 198.186 145.339C195.347 145.654 192.379 144.666 190.169 143.299C189.17 141.977 186.012 132.644 187.307 132.65Z" fill="#232D4B"/>
<path fill-rule="evenodd" clip-rule="evenodd" d="M207.908 177.821C207.233 177.821 205.55 171.828 205.206 171.079C204.938 170.495 201.492 173.392 200.972 173.767C199.248 175.013 195.752 177.759 193.182 180.962C190.321 184.531 187.151 189.289 184.4 193.674C182.908 196.051 181.54 198.319 180.411 200.227C179.458 201.836 178.677 203.191 178.135 204.139C177.776 204.765 178.17 205.562 178.889 205.643C181.725 205.963 187.899 207.853 193.603 217.637C194.006 218.325 195.008 218.313 195.382 217.608L197.601 213.43C197.979 212.718 198.992 212.699 199.385 213.403C201.97 218.03 209.966 232.311 221.988 253.482C222.179 253.818 222.55 254.021 222.938 253.998L272.04 253.113C272.72 253.072 273.172 252.388 272.938 251.751C269.426 242.226 268.024 231.146 268.024 231.146L267.141 229.384C267.141 229.384 276.916 209.719 268.524 196.442L268.547 195.714C269.709 195.036 270.867 193.881 272.026 192.725C272.026 192.725 258.101 166.007 219.024 166" fill="white"/>
<path fill-rule="evenodd" clip-rule="evenodd" d="M224.724 254C224.258 254 223.8 253.736 223.559 253.312C216.31 240.536 210.422 230.336 206.527 223.587C203.934 219.094 202.06 215.848 201.043 214.025C200.952 213.862 201.011 213.658 201.173 213.568C201.335 213.478 201.54 213.535 201.63 213.697C202.646 215.516 204.518 218.76 207.11 223.25C211.005 230.001 216.894 240.203 224.144 252.981C224.272 253.207 224.525 253.348 224.777 253.327L273.706 253.115C273.903 253.102 274.096 252.991 274.216 252.808C274.334 252.629 274.359 252.411 274.284 252.209C270.831 242.832 269.448 231.796 269.399 231.686L268.528 229.946C268.47 229.843 278.179 210.208 269.92 197.131L269.864 197.044L269.895 196.091L269.98 195.999C272.664 193.058 273.188 193.517 270.56 196.361L270.544 196.86C278.788 209.919 269.059 229.517 269.123 229.632L270.008 231.401C270.064 231.527 271.456 242.58 274.916 251.978C275.064 252.38 275.015 252.817 274.779 253.176C274.543 253.538 274.159 253.76 273.728 253.786L224.798 253.999C224.773 254 224.748 254 224.724 254Z" fill="#232D4B"/>
<path fill-rule="evenodd" clip-rule="evenodd" d="M231 166.91C226.212 166.118 222.543 166.006 220.984 166C220.522 165.999 220.125 166.321 220.008 166.792C219.548 168.634 215.735 171.732 209 176" fill="white"/>
<path fill-rule="evenodd" clip-rule="evenodd" d="M209.342 176C209.227 176 209.113 175.942 209.049 175.838C208.952 175.681 209.004 175.477 209.167 175.383C216.051 171.366 219.756 168.541 220.177 166.986C220.334 166.405 220.875 166 221.494 166H221.5C223.256 166.007 226.919 166.124 231.711 166.853C231.897 166.881 232.025 167.051 231.996 167.232C231.965 167.413 231.787 167.534 231.606 167.509C226.681 166.761 222.896 166.67 221.497 166.665H221.494C221.18 166.665 220.918 166.862 220.837 167.156C220.355 168.932 216.76 171.728 209.517 175.952C209.463 175.985 209.402 176 209.342 176Z" fill="#232D4B"/>
<path fill-rule="evenodd" clip-rule="evenodd" d="M272 193C266.396 184.731 265.414 183.017 260.7 179.075C253.733 173.248 245.883 169.909 239 168" fill="white"/>
<path fill-rule="evenodd" clip-rule="evenodd" d="M272.669 194C272.566 194 272.464 193.952 272.4 193.862C266.842 186.132 265.483 183.719 260.746 179.984C254.804 175.298 247.57 171.819 239.246 169.642C239.069 169.595 238.965 169.417 239.011 169.243C239.058 169.069 239.237 168.964 239.416 169.011C247.829 171.212 255.146 174.732 261.16 179.475C265.93 183.236 267.328 185.68 272.939 193.486C273.044 193.632 273.01 193.836 272.861 193.94C272.803 193.98 272.737 194 272.669 194Z" fill="#232D4B"/>
<path fill-rule="evenodd" clip-rule="evenodd" d="M256.594 206.992C256.493 206.969 256.404 206.899 256.361 206.795C253.535 199.978 250.107 195.587 250.073 195.543C249.958 195.399 249.982 195.188 250.125 195.072C250.269 194.957 250.478 194.983 250.593 195.126C250.627 195.17 254.11 199.627 256.974 206.535C257.045 206.705 256.965 206.902 256.796 206.974C256.728 207.002 256.659 207.007 256.594 206.992Z" fill="#232D4B"/>
<path fill-rule="evenodd" clip-rule="evenodd" d="M179.392 205C179.33 205 179.269 204.989 179.211 204.964C179.02 204.883 178.944 204.69 179.044 204.534C179.772 203.393 180.521 202.259 181.266 201.164C181.372 201.009 181.61 200.956 181.799 201.039C181.988 201.126 182.055 201.319 181.951 201.474C181.208 202.563 180.463 203.693 179.738 204.828C179.669 204.938 179.532 205 179.392 205Z" fill="#232D4B"/>
<path fill-rule="evenodd" clip-rule="evenodd" d="M195.705 217.422C191.839 225.068 183.52 244.496 175.285 252.057C170.673 256.291 97.7313 252.285 97.7313 252.285C94.3546 251.618 103.767 235.085 103.767 235.085C105.836 230.915 162.186 233.41 166.017 227.729C168.407 224.185 180.383 206.059 180.383 206.059C180.383 206.059 186.129 205.112 191.875 210.794C195.261 214.142 196.663 215.528 195.705 217.422Z" fill="white"/>
<path fill-rule="evenodd" clip-rule="evenodd" d="M180.187 206.716C179.099 208.371 168.123 225.036 165.859 228.405C163.697 231.622 146.742 232.305 130.346 232.965C118.134 233.455 104.294 234.012 103.424 235.773C101.226 239.647 95.7684 250.137 96.7827 252.328C96.8571 252.492 96.9651 252.579 97.1289 252.612C122.346 253.999 171.068 255.761 174.645 252.466C181.415 246.228 188.169 232.066 192.639 222.694C193.574 220.734 194.382 219.04 195.061 217.692C195.913 216.002 194.651 214.75 191.282 211.406C186.213 206.377 181.098 206.625 180.187 206.716ZM150.969 255C128.706 255 98.9682 253.383 97.0441 253.277C96.6189 253.196 96.3319 252.968 96.1669 252.609C94.8238 249.709 102.002 236.91 102.824 235.46C103.813 233.459 113.917 232.952 130.317 232.292C145.79 231.67 163.324 230.965 165.296 228.033C167.664 224.507 179.585 206.401 179.706 206.217L179.788 206.094L179.934 206.07C180.177 206.029 185.94 205.156 191.76 210.931C195.177 214.321 196.737 215.868 195.667 217.992C194.99 219.334 194.185 221.025 193.251 222.982C188.759 232.399 181.972 246.632 175.106 252.957C173.433 254.5 163.359 255 150.969 255Z" fill="#232D4B"/>
<path fill-rule="evenodd" clip-rule="evenodd" d="M183.332 198C183.275 198 183.217 197.986 183.166 197.955C183.007 197.863 182.953 197.66 183.044 197.5C189.643 186.092 196.21 179.237 200.558 175.495C205.286 171.426 208.409 170.082 208.539 170.026C208.708 169.955 208.904 170.034 208.974 170.205C209.045 170.375 208.965 170.57 208.798 170.641C208.672 170.693 196.132 176.201 183.619 197.834C183.557 197.941 183.447 198 183.332 198Z" fill="#232D4B"/>
<path fill-rule="evenodd" clip-rule="evenodd" d="M270.396 197.186C273.326 204.506 282.998 230.558 283.931 243.041C284.556 251.414 281.068 254.064 267.728 254.326L211.093 253.897C207.351 254.999 201.207 255 201.207 255C201.207 255 192.126 254.921 191.865 254.875L180.277 252.79C180.277 252.79 172.705 250.539 174.194 248.071L180.169 238.567C183.737 228.558 199.498 229.619 199.498 229.619C227.718 231.131 257.598 229.282 262.746 227.724C266.502 226.589 256.13 205.079 256.13 205.079C256.13 205.079 260.336 200.412 264.077 199.311C267.819 198.208 270.088 196.417 270.396 197.186Z" fill="white"/>
<path fill-rule="evenodd" clip-rule="evenodd" d="M256.123 204.682C256.682 205.951 265.061 223.68 263.861 226.356C263.57 227.003 263.093 227.431 262.442 227.627C257.196 229.214 227.458 231.072 198.891 229.541C198.731 229.53 183.294 228.612 179.844 238.293L179.811 238.359L173.819 247.89C173.657 248.159 173.632 248.421 173.743 248.711C174.327 250.218 178.262 251.681 179.729 252.118L191.316 254.201C191.613 254.232 197.049 254.29 200.627 254.321C200.685 254.321 206.782 254.308 210.444 253.23L210.542 253.216L267.344 253.646C275.352 253.488 279.472 252.487 281.561 250.188C283.002 248.601 283.524 246.289 283.255 242.69C282.421 231.55 273.03 205.107 269.702 196.798C269.555 196.422 267.714 197.153 263.776 199.128C260.799 200.619 256.981 203.962 256.123 204.682ZM191.195 254.869L179.572 252.777C178.964 252.598 173.921 251.045 173.113 248.955C172.927 248.474 172.971 247.984 173.242 247.535L179.219 238.029C182.865 227.902 198.771 228.853 198.932 228.864C226.944 230.366 257.172 228.513 262.247 226.978C262.708 226.838 263.034 226.545 263.243 226.078C264.439 223.412 255.433 204.798 255.402 204.731L255.296 204.501L255.486 204.333C255.662 204.181 260.208 200.51 263.584 198.476C267.714 195.989 269.888 195.437 270.331 196.544C273.682 204.915 283.093 231.435 283.931 242.64C284.214 246.44 283.638 248.908 282.061 250.644C279.834 253.097 275.572 254.164 267.349 254.324L210.587 253.895C206.827 254.986 200.876 254.999 200.625 255C198.478 254.981 191.462 254.917 191.195 254.869Z" fill="#232D4B"/>
<path fill-rule="evenodd" clip-rule="evenodd" d="M194.718 254.722L191.291 254.126C190.582 254.003 190.056 253.431 190.006 252.736L190 251.957C189.987 250.126 190.303 248.325 190.939 246.6L191.815 244.222C191.88 244.048 192.079 243.957 192.255 244.02C192.434 244.081 192.528 244.272 192.463 244.445L191.586 246.824C190.977 248.474 190.675 250.201 190.687 251.952L190.693 252.712C190.719 253.081 191.014 253.402 191.411 253.471L194.841 254.068C199.691 254.911 202.675 253.69 203.242 250.63C203.386 249.86 203.311 249.307 203.027 249.029C202.73 248.737 202.251 248.812 202.247 248.813C202.062 248.844 201.883 248.724 201.85 248.544C201.817 248.363 201.939 248.191 202.124 248.158C202.157 248.152 202.95 248.017 203.508 248.554C203.969 248.997 204.106 249.735 203.919 250.748C203.545 252.764 201.852 255.963 194.718 254.722Z" fill="#232D4B"/>
<path fill-rule="evenodd" clip-rule="evenodd" d="M186.612 252.995C186.528 252.979 186.449 252.931 186.397 252.853C185.638 251.742 186.189 248.459 186.255 248.088L188.344 241.242C188.399 241.06 188.586 240.958 188.764 241.017C188.941 241.073 189.039 241.265 188.985 241.446L186.905 248.252C186.687 249.503 186.495 251.8 186.947 252.463C187.053 252.618 187.016 252.83 186.863 252.939C186.786 252.993 186.696 253.01 186.612 252.995Z" fill="#6B034E"/>
<path fill-rule="evenodd" clip-rule="evenodd" d="M181.644 251.995C181.555 251.98 181.472 251.931 181.417 251.854C181.033 251.326 180.912 250.251 181.063 248.659C181.142 247.809 181.332 246.946 181.627 246.093L183.309 241.231C183.372 241.053 183.573 240.961 183.756 241.016C183.942 241.075 184.044 241.265 183.982 241.444L182.299 246.306C182.021 247.11 181.841 247.923 181.767 248.719C181.638 250.088 181.721 251.091 181.997 251.468C182.108 251.622 182.069 251.832 181.908 251.939C181.828 251.993 181.732 252.01 181.644 251.995Z" fill="#6B034E"/>
<path fill-rule="evenodd" clip-rule="evenodd" d="M196.919 249.903L195.268 249.605C195.091 249.572 194.974 249.403 195.005 249.225C195.037 249.047 195.206 248.93 195.383 248.962L197.035 249.26C200.857 249.951 202.359 246.244 202.373 246.207C202.439 246.038 202.637 245.958 202.793 246.022C202.961 246.088 203.044 246.278 202.977 246.445C202.961 246.489 201.26 250.686 196.919 249.903Z" fill="#232D4B"/>
<path fill-rule="evenodd" clip-rule="evenodd" d="M177.948 251.995C177.853 251.979 177.763 251.929 177.704 251.85C176.831 250.699 177.013 249.698 177.021 249.655L180.252 238.263C180.306 238.075 180.535 237.96 180.715 238.013C180.918 238.061 181.041 238.251 180.987 238.437L177.763 249.805C177.764 249.807 177.644 250.55 178.327 251.452C178.447 251.611 178.405 251.827 178.232 251.937C178.145 251.992 178.043 252.01 177.948 251.995Z" fill="#6B034E"/>
<path d="M132 250.5H122" stroke="white" stroke-linecap="round"/>
<path d="M147 250.5H118" stroke="white" stroke-linecap="round"/>
<path fill-rule="evenodd" clip-rule="evenodd" d="M176.66 213H122.153C121.316 213 120.576 213.541 120.334 214.332L140.168 249.918C139.924 250.709 139.185 251.25 138.347 251.25H112.903C111.558 251.25 110.638 252.589 111.138 253.82C111.427 254.532 112.126 255 112.903 255H196.199C197.015 255 197.739 254.487 198 253.724L180.741 215.476C180.068 213.75 177.96 213 176.66 213Z" fill="#0937B2"/>
<path fill-rule="evenodd" clip-rule="evenodd" d="M163.82 230.499C164.514 232.432 163.143 234 160.758 234C158.371 234 155.874 232.432 155.181 230.499C154.486 228.567 155.857 227 158.243 227C160.628 227 163.125 228.567 163.82 230.499Z" fill="white"/>
<path d="M178 251.5H188" stroke="white" stroke-linecap="round"/>
<path d="M143 251.5H172" stroke="white" stroke-linecap="round"/>
<path fill-rule="evenodd" clip-rule="evenodd" d="M99.6295 202L112 202.117L105.101 255H78L99.6295 202Z" fill="white"/>
<path fill-rule="evenodd" clip-rule="evenodd" d="M77.9942 254.325H104.407L111.243 201.79L99.4277 201.678L77.9942 254.325ZM104.99 255H77L98.9842 201L112 201.123L111.952 201.5L104.99 255Z" fill="#232D4B"/>
<path fill-rule="evenodd" clip-rule="evenodd" d="M102.131 234.616C102.131 234.616 106.84 236.51 113.999 235.195C121.431 233.829 124.133 233.146 126.836 235.878C128.863 237.927 130.213 242.024 132.24 248.17C133.781 252.842 132.916 255 130.213 255H111.973C109.271 255 101.839 253.634 101.163 248.17C100.487 242.707 102.131 234.616 102.131 234.616Z" fill="white"/>
<path fill-rule="evenodd" clip-rule="evenodd" d="M102.692 234.429C102.388 236.122 101.254 242.939 101.821 247.68C102.478 253.183 110.079 254.307 112.079 254.307H129.943C130.853 254.307 131.509 254.026 131.891 253.47C132.57 252.483 132.475 250.535 131.614 247.834C129.638 241.619 128.331 237.516 126.401 235.494C124.019 232.999 121.631 233.457 115.251 234.681L114.123 234.897C108.146 236.036 103.935 234.856 102.692 234.429ZM129.943 255H112.079C109.472 255 101.869 253.672 101.164 247.767C100.503 242.229 102.05 234.237 102.115 233.899L102.196 233.494L102.562 233.646C102.608 233.665 107.18 235.516 114.005 234.215L115.133 233.999C121.576 232.763 124.241 232.251 126.869 235.004C128.91 237.141 130.236 241.308 132.243 247.614C133.185 250.577 133.249 252.684 132.429 253.876C131.915 254.622 131.078 255 129.943 255Z" fill="#232D4B"/>
<path fill-rule="evenodd" clip-rule="evenodd" d="M108.348 174.726C104.153 168.458 99.0423 165.343 99.0423 165.343L90.6141 167.652L89.0679 171.405C80.9494 168.71 76.6414 161 76.6414 161C39.5267 170.472 29.2588 202.864 28.8494 204.203C24.7327 213.982 22.421 227.05 20.7599 236.593C17.6942 254.222 24.6712 254.707 28.0734 254.488C28.6765 254.448 31.0208 254.425 34.4855 254.41C34.4739 254.522 34.46 254.63 34.4484 254.742C34.3823 255.383 87.3396 254.677 92.9723 254.283C93.7935 254.268 94.3978 254.25 94.7307 254.228C99.4819 253.922 102.089 251.712 102.089 251.712L106.61 233.013C106.845 232.037 106.697 231.013 106.2 230.14C105.413 228.752 103.915 226.672 101.373 224.949C104.401 213.662 106.729 204.914 107.491 202.031C107.697 201.252 113.935 202.77 114.153 202.004C117.251 191.122 111.055 178.769 108.348 174.726Z" fill="white"/>
<path fill-rule="evenodd" clip-rule="evenodd" d="M45.6739 255C34.7817 255 34.5571 254.766 34.443 254.649L34.3336 254.537L34.3428 254.408C30.8583 254.423 28.9013 254.449 28.3703 254.483C26.6609 254.592 24.1763 254.505 22.3448 252.456C19.897 249.717 19.3625 244.229 20.7563 236.144C22.3033 227.161 24.6428 213.587 28.808 203.592C29.0245 202.879 34.5432 185.2 51.7098 172.024C55.7207 168.944 60.1105 166.312 64.7549 164.2L65.0325 164.816C60.4331 166.907 56.0881 169.513 52.1176 172.561C35.1215 185.607 29.6638 203.084 29.4392 203.821C25.2924 213.778 22.9599 227.306 21.4163 236.258C20.0617 244.13 20.542 249.428 22.8447 252.005C24.4815 253.836 26.7576 253.911 28.3265 253.808C28.8921 253.771 30.9804 253.747 34.7137 253.731L35.0892 253.729L35.0432 254.152C38.9815 254.612 87.3123 253.99 92.7734 253.604C93.5982 253.588 94.1926 253.57 94.5197 253.549C98.6077 253.281 101.081 251.532 101.552 251.17L106.013 232.535C106.226 231.64 106.095 230.704 105.64 229.897C104.856 228.501 103.404 226.485 100.95 224.805L100.753 224.671L100.814 224.439C103.821 213.123 106.132 204.35 106.89 201.459C107.059 200.813 108.204 200.918 110.574 201.193C111.613 201.314 113.161 201.496 113.526 201.357C116.369 191.134 111.02 179.229 107.787 174.352C104.062 168.734 99.55 165.634 98.7679 165.121L90.3602 167.019L88.766 170.914L88.4769 170.818C81.0242 168.32 77.102 162.436 76.3832 160.8C74.3133 161.344 72.2618 161.977 70.284 162.686L70.0594 162.05C72.1443 161.302 74.3098 160.637 76.4961 160.074L76.7795 160L76.8901 160.273C76.9292 160.368 80.7742 167.324 88.402 170.076L89.8764 166.448L98.8773 164.394L98.9994 164.469C99.0512 164.501 104.186 167.704 108.346 173.977C111.645 178.954 117.106 191.134 114.154 201.61C113.974 202.242 112.842 202.137 110.495 201.864C109.448 201.742 107.886 201.56 107.52 201.701C106.749 204.641 104.478 213.267 101.524 224.384C103.966 226.109 105.426 228.144 106.225 229.565C106.763 230.52 106.92 231.631 106.666 232.692L102.152 251.548L102.069 251.62C101.959 251.714 99.3392 253.911 94.5635 254.223C94.2306 254.244 93.627 254.263 92.8034 254.278C90.1794 254.465 76.3015 254.742 61.8833 254.896C54.8038 254.971 49.5592 255 45.6739 255Z" fill="#232D4B"/>
<path fill-rule="evenodd" clip-rule="evenodd" d="M47.2329 222C45.221 229.927 71.4139 223.851 86.887 222.196C98.7503 220.927 103.783 227.132 105.487 230.094C105.978 230.951 106.125 231.956 105.892 232.913L101.41 251.248C101.41 251.248 98.8239 253.414 94.111 253.715C89.397 254.016 31.3802 253.755 28.0063 253.97C24.6336 254.185 17.7132 253.709 20.7535 236.422" fill="white"/>
<path fill-rule="evenodd" clip-rule="evenodd" d="M27.4996 255C25.8864 255 23.8887 254.663 22.3506 252.966C19.8967 250.257 19.3609 244.829 20.7582 236.833L21.4198 236.946C20.0619 244.731 20.5434 249.97 22.8517 252.519C24.4926 254.33 26.7744 254.406 28.3472 254.302C29.9107 254.203 43.1591 254.207 57.1731 254.205C73.5693 254.21 92.1538 254.208 94.7046 254.046C98.8028 253.781 101.282 252.052 101.754 251.693L106.227 233.263C106.44 232.379 106.309 231.454 105.853 230.656C104.271 227.88 99.3224 221.564 87.5117 222.836C84.0405 223.21 80.0925 223.798 75.9123 224.421C63.6073 226.255 50.8843 228.152 47.8982 224.892C47.2584 224.194 47.0725 223.296 47.3427 222.224L47.9963 222.385C47.7804 223.24 47.912 223.912 48.397 224.441C51.1418 227.438 64.247 225.484 75.8118 223.76C80.0001 223.137 83.9551 222.547 87.4389 222.171C99.6354 220.858 104.791 227.437 106.439 230.327C106.978 231.272 107.135 232.37 106.881 233.42L102.356 252.068L102.273 252.137C102.162 252.231 99.5361 254.403 94.7485 254.712C92.1757 254.877 74.3811 254.881 57.1731 254.873C43.1683 254.871 29.9315 254.871 28.3899 254.97C28.1116 254.987 27.8125 255 27.4996 255Z" fill="#232D4B"/>
<path fill-rule="evenodd" clip-rule="evenodd" d="M127.955 255C127.884 255 127.814 254.98 127.75 254.941C127.579 254.833 127.533 254.612 127.646 254.448L127.726 254.334C128.142 253.755 128.838 252.786 127.36 248.985L126.023 245.479C125.953 245.293 126.05 245.09 126.244 245.022C126.437 244.954 126.649 245.05 126.719 245.234L128.055 248.739C129.668 252.886 128.834 254.045 128.337 254.738L128.264 254.841C128.192 254.944 128.074 255 127.955 255Z" fill="#232D4B"/>
<path fill-rule="evenodd" clip-rule="evenodd" d="M125.211 254C125.142 254 125.072 253.984 125.008 253.95C124.826 253.851 124.768 253.64 124.879 253.479C125.499 252.588 125.263 250.789 124.198 248.277L122.027 243.468C121.949 243.292 122.045 243.094 122.245 243.024C122.443 242.955 122.671 243.04 122.749 243.216L124.924 248.031C126.113 250.831 126.313 252.729 125.543 253.836C125.468 253.941 125.342 254 125.211 254Z" fill="#232D4B"/>
<path fill-rule="evenodd" clip-rule="evenodd" d="M117.974 255C117.733 255 117.525 254.995 117.366 254.991L117.174 254.986H113.586C106.116 254.986 105 251.477 105 249.383C105 248.334 105.28 247.617 105.829 247.251C106.497 246.809 107.275 247.083 107.309 247.095C107.491 247.162 107.583 247.358 107.515 247.533C107.445 247.707 107.241 247.797 107.061 247.732C107.057 247.731 106.585 247.572 106.228 247.812C105.889 248.042 105.709 248.585 105.709 249.383C105.709 252.558 108.506 254.307 113.586 254.307L117.387 254.312C118.072 254.329 120.165 254.389 120.978 253.63C121.189 253.432 121.292 253.192 121.292 252.896C121.292 251.843 120.574 250.02 119.213 247.626C119.118 247.462 119.183 247.256 119.354 247.166C119.525 247.075 119.741 247.136 119.833 247.301C121.272 249.83 122 251.713 122 252.896C122 253.378 121.823 253.789 121.471 254.117C120.637 254.894 119.008 255 117.974 255Z" fill="#232D4B"/>
<path fill-rule="evenodd" clip-rule="evenodd" d="M114.648 249H112.824C108.03 249 107.016 244.446 107.007 244.4C106.968 244.219 107.092 244.043 107.282 244.006C107.478 243.972 107.66 244.087 107.699 244.268C107.734 244.434 108.616 248.33 112.824 248.33H114.648C114.843 248.33 115 248.479 115 248.664C115 248.849 114.843 249 114.648 249Z" fill="#232D4B"/>
<path fill-rule="evenodd" clip-rule="evenodd" d="M85.0476 219C82.0468 201.892 86.4422 180.217 86.4864 180L87 180.13C86.9547 180.345 82.5857 201.903 85.5633 218.89L85.0476 219Z" fill="#232D4B"/>
<path fill-rule="evenodd" clip-rule="evenodd" d="M79 369V269.837C79 262.227 85.21 256 92.8 256H157.2C164.79 256 171 262.227 171 269.837V347.092" fill="white"/>
<path fill-rule="evenodd" clip-rule="evenodd" d="M78.5802 329.6C78.26 329.6 78 329.342 78 329.025V270.375C78 262.448 84.5069 256 92.5062 256H157.494C165.493 256 172 262.448 172 270.375V347.425C172 347.742 171.74 348 171.42 348C171.099 348 170.84 347.742 170.84 347.425V270.375C170.84 263.083 164.853 257.15 157.494 257.15H92.5062C85.1475 257.15 79.1605 263.083 79.1605 270.375V329.025C79.1605 329.342 78.9005 329.6 78.5802 329.6Z" fill="#232D4B"/>
<path fill-rule="evenodd" clip-rule="evenodd" d="M0.572266 235.97H64.6882C72.2447 235.97 78.4273 242.208 78.4273 249.832V368.815" fill="white"/>
<path d="M0.572266 235.97H64.6882C72.2447 235.97 78.4273 242.208 78.4273 249.832V368.815" stroke="#232D4B" stroke-linecap="round"/>
<path fill-rule="evenodd" clip-rule="evenodd" d="M77 395V255.046C77 245.671 71.0438 238 63.7642 238H2V395H77Z" fill="white"/>
<path fill-rule="evenodd" clip-rule="evenodd" d="M106.09 289H95.9101C93.7512 289 92 287.25 92 285.09V274.91C92 272.75 93.7512 271 95.9101 271H106.09C108.249 271 110 272.75 110 274.91V285.09C110 287.25 108.249 289 106.09 289Z" fill="white"/>
<path fill-rule="evenodd" clip-rule="evenodd" d="M96.4529 271.152C94.6324 271.152 93.1515 272.632 93.1515 274.453V284.547C93.1515 286.368 94.6324 287.848 96.4529 287.848H106.547C108.368 287.848 109.848 286.368 109.848 284.547V274.453C109.848 272.632 108.368 271.152 106.547 271.152H96.4529ZM106.547 289H96.4529C93.9967 289 92 287.002 92 284.547V274.453C92 271.998 93.9967 270 96.4529 270H106.547C109.002 270 111 271.998 111 274.453V284.547C111 287.002 109.002 289 106.547 289Z" fill="#232D4B"/>
<path fill-rule="evenodd" clip-rule="evenodd" d="M155.09 289H144.91C142.751 289 141 287.25 141 285.09V274.91C141 272.75 142.751 271 144.91 271H155.09C157.249 271 159 272.75 159 274.91V285.09C159 287.25 157.249 289 155.09 289Z" fill="white"/>
<path fill-rule="evenodd" clip-rule="evenodd" d="M145.453 271.152C143.632 271.152 142.152 272.632 142.152 274.453V284.547C142.152 286.368 143.632 287.848 145.453 287.848H155.547C157.368 287.848 158.848 286.368 158.848 284.547V274.453C158.848 272.632 157.368 271.152 155.547 271.152H145.453ZM155.547 289H145.453C142.997 289 141 287.002 141 284.547V274.453C141 271.998 142.997 270 145.453 270H155.547C158.002 270 160 271.998 160 274.453V284.547C160 287.002 158.002 289 155.547 289Z" fill="#232D4B"/>
<path fill-rule="evenodd" clip-rule="evenodd" d="M130.09 289H119.91C117.751 289 116 287.25 116 285.09V274.91C116 272.75 117.751 271 119.91 271H130.09C132.249 271 134 272.75 134 274.91V285.09C134 287.25 132.249 289 130.09 289Z" fill="white"/>
<path fill-rule="evenodd" clip-rule="evenodd" d="M120.453 271.152C118.632 271.152 117.152 272.632 117.152 274.453V284.547C117.152 286.368 118.632 287.848 120.453 287.848H130.547C132.368 287.848 133.848 286.368 133.848 284.547V274.453C133.848 272.632 132.368 271.152 130.547 271.152H120.453ZM130.547 289H120.453C117.997 289 116 287.002 116 284.547V274.453C116 271.998 117.997 270 120.453 270H130.547C133.002 270 135 271.998 135 274.453V284.547C135 287.002 133.002 289 130.547 289Z" fill="#232D4B"/>
<path fill-rule="evenodd" clip-rule="evenodd" d="M106.09 329H95.9101C93.7512 329 92 327.25 92 325.09V314.91C92 312.75 93.7512 311 95.9101 311H106.09C108.249 311 110 312.75 110 314.91V325.09C110 327.25 108.249 329 106.09 329Z" fill="white"/>
<path fill-rule="evenodd" clip-rule="evenodd" d="M96.4529 311.152C94.6324 311.152 93.1515 312.632 93.1515 314.453V324.547C93.1515 326.368 94.6324 327.848 96.4529 327.848H106.547C108.368 327.848 109.848 326.368 109.848 324.547V314.453C109.848 312.632 108.368 311.152 106.547 311.152H96.4529ZM106.547 329H96.4529C93.9967 329 92 327.003 92 324.547V314.453C92 311.998 93.9967 310 96.4529 310H106.547C109.002 310 111 311.998 111 314.453V324.547C111 327.003 109.002 329 106.547 329Z" fill="#232D4B"/>
<path fill-rule="evenodd" clip-rule="evenodd" d="M101 368H95.9101C93.7512 368 92 366.25 92 364.09V353.91C92 351.75 93.7512 350 95.9101 350H106.09C108.249 350 110 351.75 110 353.91V359" fill="white"/>
<path fill-rule="evenodd" clip-rule="evenodd" d="M101.5 368H96.4529C93.9967 368 92 366.003 92 363.547V353.453C92 350.997 93.9967 349 96.4529 349H106.547C109.003 349 111 350.997 111 353.453V358.5C111 358.818 110.742 359.076 110.424 359.076C110.106 359.076 109.848 358.818 109.848 358.5V353.453C109.848 351.632 108.368 350.152 106.547 350.152H96.4529C94.6324 350.152 93.1515 351.632 93.1515 353.453V363.547C93.1515 365.368 94.6324 366.848 96.4529 366.848H101.5C101.818 366.848 102.076 367.106 102.076 367.424C102.076 367.742 101.818 368 101.5 368Z" fill="#232D4B"/>
<path fill-rule="evenodd" clip-rule="evenodd" d="M130.09 329H119.91C117.751 329 116 327.25 116 325.09V314.91C116 312.75 117.751 311 119.91 311H130.09C132.249 311 134 312.75 134 314.91V325.09C134 327.25 132.249 329 130.09 329Z" fill="white"/>
<path fill-rule="evenodd" clip-rule="evenodd" d="M120.453 311.152C118.632 311.152 117.152 312.632 117.152 314.453V324.547C117.152 326.368 118.632 327.848 120.453 327.848H130.547C132.368 327.848 133.848 326.368 133.848 324.547V314.453C133.848 312.632 132.368 311.152 130.547 311.152H120.453ZM130.547 329H120.453C117.997 329 116 327.003 116 324.547V314.453C116 311.998 117.997 310 120.453 310H130.547C133.002 310 135 311.998 135 314.453V324.547C135 327.003 133.002 329 130.547 329Z" fill="#232D4B"/>
<path fill-rule="evenodd" clip-rule="evenodd" d="M58.3898 321H49.6102C49.2722 321 49 320.776 49 320.5C49 320.224 49.2722 320 49.6102 320H58.3898C58.7266 320 59 320.224 59 320.5C59 320.776 58.7266 321 58.3898 321Z" fill="#232D4B"/>
<path d="M90 157C90 157 89.4375 158.75 85.5 160.5C81.5625 162.25 81 164 81 164" stroke="white" stroke-width="0.5"/>
<path d="M94 157C94 157 94 160.75 90 162" stroke="white" stroke-width="0.5"/>
<path fill-rule="evenodd" clip-rule="evenodd" d="M44.5 322C44.224 322 44 321.74 44 321.42V253.58C44 253.26 44.224 253 44.5 253C44.776 253 45 253.26 45 253.58V321.42C45 321.74 44.776 322 44.5 322Z" fill="#232D4B"/>
<path fill-rule="evenodd" clip-rule="evenodd" d="M290.5 392C290.224 392 290 391.582 290 391.066V281.934C290 281.417 290.224 281 290.5 281C290.776 281 291 281.417 291 281.934V391.066C291 391.582 290.776 392 290.5 392Z" fill="#232D4B"/>
<path fill-rule="evenodd" clip-rule="evenodd" d="M33.4153 288H22.5847C22.262 288 22 287.776 22 287.5C22 287.224 22.262 287 22.5847 287H33.4153C33.738 287 34 287.224 34 287.5C34 287.776 33.738 288 33.4153 288Z" fill="#232D4B"/>
<path fill-rule="evenodd" clip-rule="evenodd" d="M67.4156 288H49.5844C49.2618 288 49 287.776 49 287.5C49 287.224 49.2618 287 49.5844 287H67.4156C67.7382 287 68 287.224 68 287.5C68 287.776 67.7382 288 67.4156 288Z" fill="#232D4B"/>
<path fill-rule="evenodd" clip-rule="evenodd" d="M284.42 288H185.58C185.26 288 185 287.776 185 287.5C185 287.224 185.26 287 185.58 287H284.42C284.74 287 285 287.224 285 287.5C285 287.776 284.74 288 284.42 288Z" fill="#232D4B"/>
<path fill-rule="evenodd" clip-rule="evenodd" d="M284.42 324H185.58C185.26 324 185 323.776 185 323.5C185 323.224 185.26 323 185.58 323H284.42C284.74 323 285 323.224 285 323.5C285 323.776 284.74 324 284.42 324Z" fill="#232D4B"/>
<path d="M298 256.5H149" stroke="#232D4B"/>
<path fill-rule="evenodd" clip-rule="evenodd" d="M252 292.584V310.416C252 310.738 251.776 311 251.5 311C251.224 311 251 310.738 251 310.416V292.584C251 292.262 251.224 292 251.5 292C251.776 292 252 292.262 252 292.584Z" fill="#232D4B"/>
<path fill-rule="evenodd" clip-rule="evenodd" d="M214 339.606V348.394C214 348.729 213.776 349 213.5 349C213.224 349 213 348.729 213 348.394V339.606C213 339.271 213.224 339 213.5 339C213.776 339 214 339.271 214 339.606Z" fill="#232D4B"/>
<path fill-rule="evenodd" clip-rule="evenodd" d="M214 300.584V318.416C214 318.738 213.776 319 213.5 319C213.224 319 213 318.738 213 318.416V300.584C213 300.262 213.224 300 213.5 300C213.776 300 214 300.262 214 300.584Z" fill="#232D4B"/>
<path fill-rule="evenodd" clip-rule="evenodd" d="M252 263.584V281.416C252 281.738 251.776 282 251.5 282C251.224 282 251 281.738 251 281.416V263.584C251 263.262 251.224 263 251.5 263C251.776 263 252 263.262 252 263.584Z" fill="#232D4B"/>
</svg>
