<svg width="105" height="40" viewBox="0 0 105 40" fill="none" xmlns="http://www.w3.org/2000/svg">
<path d="M42.2728 1.01953H10.1291C8.50793 1.01953 6.91821 2.31904 6.57574 3.92667L0.270829 33.693C-0.0687037 35.3007 0.970502 36.6021 2.59064 36.6021H34.7334C36.3565 36.6021 37.9462 35.2997 38.2877 33.693L44.5926 3.92764C44.9341 2.32293 43.8959 1.01855 42.2728 1.01855V1.01953Z" fill="#3DAE2B"/>
<path d="M30.8172 13.9835L31.3775 11.6275H21.691L22.2563 9.24812L14.9033 14.035L19.9865 18.8122L20.5586 16.4027H31.8142C33.6247 16.4027 34.7581 17.8704 34.3313 19.6637L32.4589 27.5463C32.0321 29.3405 30.2019 30.8072 28.3934 30.8072H12.3274L11.7681 33.1594L6.72217 28.4211L14.0251 23.6555L13.4667 25.9999H23.1493L22.586 28.3715L29.9223 23.6477L24.8587 18.7967L24.2797 21.2344H13.1399C11.3284 21.2344 10.2313 19.6267 10.6553 17.8325L12.4942 10.0879C12.9201 8.29463 14.7512 6.82696 16.5588 6.82696H32.5129L33.0732 4.46606L38.1397 9.24132L30.8172 13.9845V13.9835Z" fill="white"/>
<path fill-rule="evenodd" clip-rule="evenodd" d="M61.525 17.6558L64.0735 5.95722L56.8354 17.6392H55.9757L53.9906 6.02234L51.4872 17.6558H49.6836L52.8395 2.95288H55.1259L57.0503 14.1635L64.0166 2.95288H66.4777L63.3218 17.6558H61.525ZM65.7947 13.1352C65.7309 9.8577 68.2872 6.83879 71.8396 6.83879C75.0053 6.83879 76.9463 8.71467 77.0013 11.4527C77.066 14.7515 74.5107 17.7724 70.9544 17.7724C67.7897 17.7705 65.8487 15.8946 65.7947 13.1352ZM71.8219 8.28021C73.9101 8.28021 75.1515 9.55445 75.1898 11.5159C75.2388 13.9749 73.496 16.3261 70.9711 16.3242C68.8819 16.3242 67.4551 15.0013 67.4178 13.0389C67.3678 10.5808 69.3196 8.28021 71.8219 8.28021ZM97.4576 11.3555C97.4576 8.66996 95.6932 6.74839 92.872 6.74839C89.4992 6.74839 86.8762 9.65262 86.8762 13.1468C86.8762 15.9412 88.8378 17.819 92.0781 17.819C93.4441 17.819 94.8552 17.2942 95.8247 16.5749L95.2526 15.4183C94.393 16.1181 93.2252 16.4661 92.189 16.4661C89.8976 16.4661 88.6916 15.0966 88.5827 13.5502C88.5819 13.5416 88.5806 13.534 88.5794 13.5266C88.5776 13.5154 88.5758 13.5047 88.5758 13.4919C88.5238 12.4655 88.7573 11.5557 88.8682 11.1844L88.8751 11.1611L88.8908 11.1117L88.8909 11.1115C88.9003 11.0821 88.9078 11.0586 88.9124 11.0406C89.407 9.46114 90.9496 8.10137 92.7159 8.10137C94.8336 8.10137 95.9572 9.43296 95.9572 11.2019C95.9572 11.3108 95.9739 11.4041 95.9739 11.4041H90.0075L89.7278 12.8154H97.2829C97.3467 12.5121 97.4576 11.857 97.4576 11.3555ZM77.6195 7.00888L79.4594 17.6558H81.4937L88.1499 7.00888H86.0676L80.8509 15.3561L79.4192 7.00888H77.6195Z" fill="#181F33"/>
<path d="M57.0353 34.494L58.5426 27.5046C58.5897 27.285 58.6604 27.0187 58.6604 26.7562C58.6604 25.5422 57.7183 25.0689 56.3808 25.0689C55.0668 25.0689 53.6066 26.2071 52.7401 27.0663L51.1406 34.493H49.4263L51.7176 23.8471H53.4369L53.1032 25.3906C54.0875 24.4886 55.4927 23.5828 57.1109 23.5828C59.103 23.5828 60.516 24.509 60.516 26.2071C60.516 26.4267 60.4385 26.8281 60.3757 27.111L58.783 34.496H57.0363V34.493L57.0353 34.494Z" fill="#181F33"/>
<path d="M46.0488 34.4726L48.348 23.8257L50.1399 23.8276L47.8584 34.4726H46.0488Z" fill="#010101"/>
<path d="M50.4135 22.5711L50.8138 20.7234H49.019L48.6206 22.5711H50.4135Z" fill="#181F33"/>
<path fill-rule="evenodd" clip-rule="evenodd" d="M102.737 24.0459V24.8909H102.91V24.0459H103.208V23.8909H102.438V24.0459H102.737ZM104.221 24.1205V24.8909H104.393V23.8939H104.15L103.882 24.5777L103.613 23.8939H103.371V24.8909H103.542V24.1205L103.847 24.8909H103.919L104.221 24.1205Z" fill="#181F33"/>
<path fill-rule="evenodd" clip-rule="evenodd" d="M61.6514 30.8521L60.4229 32.1419V32.1429C61.4748 33.6543 63.7995 34.7691 66.454 34.772C69.9209 34.772 71.7668 32.4743 71.7108 30.1552C71.6545 27.8135 69.3593 26.8922 67.3278 26.0768C65.715 25.4294 64.2684 24.8488 64.2401 23.6771C64.2087 22.4291 65.507 21.2909 67.2312 21.2909C68.8444 21.2909 70.5382 21.9256 71.5646 23.2601L72.7707 21.9907C71.6991 20.5707 69.6668 19.6716 67.4127 19.6716C64.3412 19.6716 62.2245 21.6846 62.2785 23.9376C62.3337 26.1942 64.5323 27.0696 66.5301 27.865C68.1937 28.5274 69.718 29.1343 69.7492 30.4371C69.7796 31.6618 68.866 33.1498 66.5678 33.1498C64.4923 33.1498 62.7014 32.2517 61.6514 30.8521ZM89.235 34.566L90.7423 27.5776C90.7497 27.543 90.7577 27.5073 90.766 27.4706L90.766 27.4704C90.81 27.274 90.8601 27.0501 90.8601 26.8282C90.8601 25.6152 90.078 25.1418 88.7405 25.1418C87.4265 25.1418 85.8064 26.279 84.9369 27.1382L83.3236 34.566H81.5642L83.8398 23.9191H85.6268L85.2931 25.4606C86.2774 24.5587 87.8485 23.6528 89.4657 23.6528C91.4577 23.6528 92.7138 24.5791 92.7138 26.2771C92.7138 26.4968 92.6431 26.94 92.5725 27.181L90.9661 34.566H89.235ZM93.2457 30.0522C93.2457 26.7465 95.7657 24.0008 98.9569 24.0008C100.825 24.0008 102.064 24.7288 102.756 25.8718L101.559 26.765C101.034 25.8514 100.048 25.3936 98.9981 25.3936C96.4565 25.3936 94.8825 27.6194 94.8825 30.0308C94.8825 32.0885 96.2681 33.1498 98.0521 33.1498C99.1247 33.1498 100.026 32.6502 100.634 31.9436L101.515 33.005C100.656 33.8778 99.5201 34.5446 97.9039 34.5446C95.1769 34.5427 93.2457 32.8582 93.2457 30.0522Z" fill="#181F33"/>
<path d="M80.8676 23.9192L75.7618 32.1255L74.3586 23.9192H72.4715L74.2967 34.4533L73.1849 36.2514C72.6746 37.0708 72.2664 37.3857 71.5716 37.3857H70.4461L70.0859 39.0186L71.4539 39.0215C73.1172 39.0215 73.8895 38.1701 74.8522 36.7238L82.8361 23.9172H80.8676V23.9192Z" fill="#181F33"/>
</svg>
