<svg width="305" height="316" viewBox="0 0 305 316" fill="none" xmlns="http://www.w3.org/2000/svg">
<path fill-rule="evenodd" clip-rule="evenodd" d="M139.882 268.518L147.882 297.518L169.882 290.518L163.882 267.518L139.882 268.518Z" fill="white"/>
<path fill-rule="evenodd" clip-rule="evenodd" d="M170.382 182.018H259.382C263.316 182.018 280.247 214.203 287.29 227.931C288.718 230.714 286.694 234.018 283.566 234.018H254.382" fill="white"/>
<path fill-rule="evenodd" clip-rule="evenodd" d="M283.565 234.518H254.381V233.518H283.565C284.86 233.518 286.037 232.859 286.711 231.754C287.384 230.653 287.434 229.308 286.844 228.16C272.402 200.006 261.878 182.518 259.381 182.518H170.381V181.518H259.381C263.232 181.518 276.925 206.633 287.735 227.703C288.484 229.164 288.42 230.873 287.564 232.276C286.707 233.68 285.211 234.518 283.565 234.518Z" fill="#232D4B"/>
<mask id="mask0_1595_641" style="mask-type:luminance" maskUnits="userSpaceOnUse" x="0" y="0" width="305" height="308">
<path fill-rule="evenodd" clip-rule="evenodd" d="M0 0.000244141H304.776V307.518H0V0.000244141Z" fill="white"/>
</mask>
<g mask="url(#mask0_1595_641)">
<path fill-rule="evenodd" clip-rule="evenodd" d="M161.243 16.4498C213.863 -3.96924 249.752 -2.76124 274.196 20.2458C290.866 35.9348 302.868 59.7268 302.987 59.9648L304.776 59.0708C304.655 58.8288 292.501 34.7268 275.567 18.7898C250.494 -4.80824 213.937 -6.14324 160.52 14.5858C127.989 27.2098 121.792 44.0208 120.993 52.9188C120.154 62.2678 124.444 71.0198 132.19 75.7608C139.363 80.1518 148.046 80.0038 155.415 75.3638C156.543 74.6538 157.791 73.8508 159.147 72.9788C176.555 61.7858 212.777 38.4968 241.125 53.4848C266.379 66.8358 280.092 107.566 281.882 174.544C283.362 229.892 270.268 264.956 242.966 278.765C195.384 302.83 117.696 254.884 99.4958 240.729C85.4308 229.79 92.8948 218.531 103.225 202.948C111.537 190.408 121.882 174.804 121.882 155.518C121.882 138.535 114.136 125.528 100.07 118.89C85.6828 112.1 66.4338 113.357 56.2458 121.746C46.2638 129.966 53.7378 147.018 60.9658 163.507C66.5238 176.19 71.7748 188.168 68.0408 193.977C65.1328 198.499 57.1318 198.278 47.8728 198.023C30.8348 197.558 7.51179 196.911 0.903785 227.305C-4.35121 251.482 14.3088 278.515 30.8888 296.937C34.2548 300.677 37.6738 304.223 41.0068 307.518H43.9418C22.7288 286.808 -3.08721 255.086 2.85879 227.731C9.11279 198.956 30.5698 199.543 47.8178 200.023C57.6838 200.294 66.2068 200.529 69.7218 195.059C74.0368 188.347 68.5778 175.892 62.7978 162.704C55.8678 146.896 48.7028 130.549 57.5168 123.289C67.1568 115.353 85.4718 114.212 99.2168 120.699C112.543 126.988 119.882 139.353 119.882 155.518C119.882 174.2 110.147 188.886 101.558 201.843C91.4608 217.075 82.7398 230.23 98.2668 242.307C107.046 249.135 131.108 264.957 159.343 275.972C193.904 289.453 223.134 291.036 243.868 280.55C271.922 266.362 285.384 230.679 283.882 174.491C282.07 106.738 267.999 65.4298 242.06 51.7168C212.674 36.1808 175.791 59.8988 158.066 71.2968C156.715 72.1648 155.472 72.9648 154.348 73.6718C147.54 77.9578 139.843 78.0988 133.234 74.0548C126.141 69.7138 122.215 61.6838 122.985 53.0968C124.749 33.4438 147.713 21.7008 161.243 16.4498Z" fill="#DDE3F3"/>
</g>
<path fill-rule="evenodd" clip-rule="evenodd" d="M167.382 234.018H226.75C230.177 234.018 232.382 233.018 234.689 228.881L255.382 191.018C255.382 191.018 257.382 187.018 259.382 191.018L281.399 232.852C281.798 233.618 282.004 234.47 281.997 235.333L281.424 307.774C281.401 310.673 279.037 313.007 276.138 312.995L175.102 312.541C172.189 312.529 169.84 310.151 169.863 307.237L170.382 243.018" fill="white"/>
<path fill-rule="evenodd" clip-rule="evenodd" d="M276.161 313.494H276.136L175.099 313.041C173.557 313.034 172.11 312.426 171.025 311.328C169.941 310.23 169.35 308.775 169.363 307.232L169.882 243.014C169.884 242.739 170.107 242.517 170.382 242.517H170.386C170.662 242.519 170.884 242.745 170.882 243.021L170.363 307.24C170.352 308.515 170.841 309.718 171.737 310.626C172.633 311.533 173.829 312.035 175.103 312.041L276.14 312.494H276.161C278.768 312.494 280.902 310.379 280.924 307.769L281.497 235.329C281.503 234.551 281.315 233.774 280.955 233.084L258.939 191.25C258.593 190.556 258.058 189.741 257.457 189.74H257.456C256.745 189.74 256.025 190.851 255.829 191.242L235.127 229.12C232.61 233.635 230.149 234.517 226.75 234.517H167.382C167.105 234.517 166.882 234.294 166.882 234.017C166.882 233.741 167.105 233.517 167.382 233.517H226.75C229.85 233.517 231.964 232.739 234.252 228.637L254.943 190.777C255.04 190.584 256.004 188.74 257.456 188.74C258.349 188.74 259.147 189.431 259.829 190.794L281.841 232.62C282.278 233.456 282.505 234.395 282.497 235.337L281.924 307.777C281.898 310.934 279.315 313.494 276.161 313.494Z" fill="#232D4B"/>
<path fill-rule="evenodd" clip-rule="evenodd" d="M187.882 274.518L195.882 303.518L217.882 296.518L211.882 273.518L187.882 274.518Z" fill="white"/>
<path fill-rule="evenodd" clip-rule="evenodd" d="M163.882 233.518H223.25C226.677 233.518 229.785 231.507 231.189 228.381L250.882 184.518H185.382L163.882 233.518Z" fill="white"/>
<path fill-rule="evenodd" clip-rule="evenodd" d="M233.382 208.518H184.382C184.106 208.518 183.882 208.294 183.882 208.018C183.882 207.742 184.106 207.518 184.382 207.518H233.382C233.658 207.518 233.882 207.742 233.882 208.018C233.882 208.294 233.658 208.518 233.382 208.518Z" fill="#232D4B"/>
<path fill-rule="evenodd" clip-rule="evenodd" d="M161.012 269.49L161.015 269.518C161.384 273.653 164.858 276.818 169.01 276.818H214.505C218.825 276.818 221.837 272.535 220.377 268.47L196.395 201.716L188.493 181.185H228.066C251.516 181.185 255.202 166.945 255.912 157.002C256.248 152.295 254.116 145.12 251.711 138.733L251.765 138.682L200.951 141.613L203.15 147.115L139.645 147.343C139.645 147.343 127.303 147.109 124.371 164.697C124.371 164.697 116.553 200.388 126.127 262.93C126.765 267.099 130.394 270.156 134.61 270.064L161.012 269.49Z" fill="white"/>
<path fill-rule="evenodd" clip-rule="evenodd" d="M161.378 269.46C161.735 273.457 165.015 276.452 169.011 276.452H214.506C216.444 276.452 218.194 275.543 219.31 273.958C220.425 272.373 220.689 270.418 220.033 268.593L196.05 201.839L188.151 181.317C188.108 181.204 188.123 181.077 188.191 180.978C188.26 180.878 188.373 180.819 188.494 180.819H228.066C253.845 180.819 255.127 162.874 255.548 156.977C255.825 153.094 254.445 147.069 251.446 139.068L201.481 141.95L203.49 146.979C203.535 147.091 203.522 147.22 203.454 147.32C203.387 147.421 203.273 147.481 203.151 147.481L139.647 147.709C139.142 147.71 127.576 147.706 124.733 164.757C124.711 164.864 122.772 173.877 122.024 190.403C121.336 205.655 121.551 230.61 126.489 262.875C127.099 266.852 130.582 269.786 134.603 269.698L161.005 269.124C161.175 269.127 161.362 269.267 161.378 269.46ZM214.506 277.185H169.011C164.738 277.185 161.213 274.06 160.685 269.864L134.618 270.431C130.267 270.53 126.43 267.325 125.766 262.985C120.815 230.648 120.603 205.634 121.294 190.344C122.044 173.764 123.994 164.709 124.015 164.618C126.92 147.18 139.189 146.976 139.641 146.976H139.652L202.61 146.751L200.611 141.749C200.567 141.64 200.579 141.516 200.643 141.417C200.705 141.317 200.813 141.254 200.931 141.248L251.744 138.316C251.881 138.302 252.042 138.396 252.103 138.538C252.136 138.615 252.141 138.698 252.119 138.776C255.165 146.895 256.564 153.035 256.279 157.028C255.845 163.094 254.527 181.552 228.066 181.552H189.027L196.737 201.584L220.723 268.346C221.459 270.397 221.163 272.597 219.908 274.379C218.654 276.162 216.686 277.185 214.506 277.185Z" fill="#232D4B"/>
<path fill-rule="evenodd" clip-rule="evenodd" d="M184.781 77.3849C184.385 76.5999 184.052 75.7569 183.765 75.1339C183.543 74.6469 182.936 74.4849 182.505 74.8019C181.078 75.8439 178.169 78.1229 176.036 80.7889C173.659 83.7599 171.027 87.7209 168.743 91.3699C167.504 93.3489 166.367 95.2369 165.429 96.8249C164.638 98.1649 163.989 99.2909 163.539 100.08C163.241 100.602 163.568 101.265 164.166 101.333C166.522 101.599 171.647 103.173 176.385 111.316C176.718 111.889 177.552 111.879 177.863 111.292L179.705 107.813C180.018 107.221 180.86 107.206 181.186 107.792C183.333 111.642 189.973 123.53 199.957 141.151C200.116 141.431 200.423 141.601 200.745 141.582L250.581 138.599C251.145 138.566 251.52 137.997 251.326 137.466C248.41 129.538 244.921 122.56 244.921 122.56L244.188 121.094C244.188 121.094 238.836 111.46 231.866 100.409L231.885 99.8029C234.614 96.8089 238.846 94.2069 244.845 93.3959C244.845 93.3959 229.946 68.3419 197.495 68.3359" fill="white"/>
<path fill-rule="evenodd" clip-rule="evenodd" d="M200.696 142.083C200.217 142.083 199.761 141.819 199.522 141.397C189.342 123.429 182.58 111.318 180.75 108.034C180.615 107.793 180.702 107.488 180.943 107.354C181.182 107.221 181.489 107.307 181.623 107.548C183.453 110.83 190.214 122.938 200.391 140.904C200.457 141.02 200.572 141.085 200.715 141.082L250.55 138.1C250.662 138.093 250.759 138.036 250.821 137.943C250.881 137.852 250.894 137.74 250.856 137.638C247.984 129.83 244.509 122.853 244.473 122.783L243.741 121.317C243.698 121.24 238.325 111.587 231.443 100.675L231.361 100.546L231.391 99.602L231.516 99.466C233.779 96.983 237.917 93.828 244.778 92.9C245.058 92.861 245.304 93.055 245.341 93.329C245.378 93.603 245.186 93.854 244.913 93.892C238.472 94.762 234.556 97.666 232.38 100.005L232.371 100.271C239.228 111.154 244.572 120.755 244.626 120.851L245.368 122.336C245.403 122.406 248.903 129.431 251.796 137.293C251.943 137.696 251.892 138.133 251.657 138.491C251.421 138.852 251.039 139.072 250.61 139.098L200.775 142.08C200.749 142.082 200.721 142.083 200.696 142.083Z" fill="#232D4B"/>
<path fill-rule="evenodd" clip-rule="evenodd" d="M206.315 69.0415C202.325 68.4175 199.268 68.3295 197.969 68.3245C197.585 68.3225 197.253 68.5765 197.156 68.9485C196.773 70.4005 194.785 74.1905 189.808 77.9115" fill="white"/>
<path fill-rule="evenodd" clip-rule="evenodd" d="M189.808 78.2778C189.697 78.2778 189.586 78.2268 189.514 78.1318C189.394 77.9688 189.426 77.7388 189.588 77.6178C194.418 74.0068 196.418 70.3068 196.801 68.8548C196.941 68.3258 197.419 67.9578 197.966 67.9578H197.97C199.421 67.9638 202.441 68.0648 206.371 68.6788C206.571 68.7108 206.708 68.8978 206.677 69.0978C206.645 69.2988 206.455 69.4298 206.258 69.4028C202.376 68.7958 199.398 68.6958 197.967 68.6908H197.965C197.748 68.6908 197.566 68.8318 197.509 69.0418C197.105 70.5788 195.019 74.4718 190.028 78.2048C189.961 78.2548 189.884 78.2778 189.808 78.2778Z" fill="#232D4B"/>
<path fill-rule="evenodd" clip-rule="evenodd" d="M244.783 93.2466C240.047 86.5626 234.98 82.5096 230.997 79.3236C225.109 74.6136 218.474 71.9146 212.658 70.3716" fill="white"/>
<path fill-rule="evenodd" clip-rule="evenodd" d="M244.783 93.6129C244.668 93.6129 244.554 93.5589 244.483 93.4589C239.776 86.8149 234.781 82.8199 230.768 79.6099C225.736 75.5849 219.612 72.5949 212.564 70.7259C212.368 70.6739 212.253 70.4729 212.304 70.2779C212.355 70.0819 212.553 69.9649 212.752 70.0179C219.899 71.9129 226.114 74.9479 231.226 79.0379C235.275 82.2769 240.315 86.3069 245.082 93.0349C245.198 93.1999 245.16 93.4279 244.994 93.5459C244.929 93.5909 244.856 93.6129 244.783 93.6129Z" fill="#232D4B"/>
<path fill-rule="evenodd" clip-rule="evenodd" d="M171.525 49.5973C170.16 51.0853 169.897 52.9883 170.485 57.1393C171.261 62.6173 174.123 70.0863 177.395 72.6023C179.141 73.9463 181.686 74.1253 183.433 73.7073C183.442 73.7043 183.453 73.7053 183.46 73.7003C183.542 73.6423 185.823 77.4413 185.823 77.4413L187 79.6733L187.228 79.5393C187.275 79.5123 191.98 76.6933 196.308 69.6423L196.39 69.5073L192.403 63.2913C192.333 63.1833 192.347 63.0463 192.437 62.9573C192.485 62.9103 192.606 62.8343 192.735 62.7543C193.279 62.4143 194.29 61.7823 194.801 60.3683C195.276 59.0603 195.336 57.0643 194.513 55.9433C194.063 55.3303 193.386 55.0253 192.555 55.0613C190.299 55.1603 190.278 58.5293 190.277 58.6723C190.277 58.6723 187.742 48.8183 183.658 46.8223C178.516 44.3093 171.578 49.5393 171.525 49.5973Z" fill="white"/>
<path fill-rule="evenodd" clip-rule="evenodd" d="M186.996 79.3823C187.043 79.3543 191.748 76.5363 196.076 69.4863L196.158 69.3503L192.171 63.1343C192.1 63.0273 192.115 62.8893 192.205 62.8003C192.253 62.7543 192.374 62.6773 192.503 62.5973C193.047 62.2573 194.058 61.6243 194.569 60.2123C195.044 58.9033 195.103 56.9073 194.281 55.7863C193.831 55.1743 193.154 54.8683 192.323 54.9043C190.067 55.0033 190.046 58.3713 190.045 58.5153C190.046 58.6543 190.158 58.7673 190.298 58.7673C190.436 58.7673 190.55 58.6543 190.551 58.5143C190.55 58.4843 190.569 55.4833 192.345 55.4083C193.009 55.3803 193.523 55.6083 193.874 56.0853C194.566 57.0293 194.53 58.8373 194.095 60.0393C193.642 61.2893 192.762 61.8403 192.235 62.1693C192.069 62.2733 191.938 62.3553 191.851 62.4403C191.59 62.6983 191.546 63.0963 191.745 63.4073L195.562 69.3563C191.865 75.3273 187.93 78.1643 186.963 78.8043L186.201 77.3603C186.851 76.6163 189.83 73.0123 189.69 69.5883C189.685 69.4963 189.679 69.3263 189.522 69.2433C189.478 69.2193 189.358 69.1743 189.179 69.2903C189.144 69.3213 185.667 72.4253 183.108 73.0523C183.1 73.0543 183.092 73.0573 183.084 73.0593C181.453 73.4493 179.085 73.2873 177.471 72.0453C174.3 69.6063 171.515 62.2913 170.753 56.9123C170.117 52.4183 170.56 50.9853 171.665 49.7813C171.76 49.6783 171.753 49.5193 171.649 49.4243C171.547 49.3303 171.387 49.3373 171.293 49.4403C169.928 50.9283 169.665 52.8313 170.253 56.9833C171.029 62.4603 173.891 69.9293 177.163 72.4453C178.909 73.7893 181.454 73.9683 183.201 73.5493C183.21 73.5483 183.221 73.5493 183.227 73.5433C183.309 73.4853 185.591 77.2833 185.591 77.2833L186.767 79.5163L186.996 79.3823ZM176.892 61.2693C176.666 61.9153 176.439 62.5613 176.2 63.2033L175.846 64.1683C175.79 64.3403 175.727 64.4643 175.677 64.6913C175.623 64.8973 175.656 65.1373 175.753 65.3253C175.954 65.7083 176.299 65.9023 176.623 66.0423C176.959 66.1713 177.299 66.2663 177.648 66.2943C177.328 66.1553 177.015 66.0153 176.739 65.8233C176.46 65.6483 176.207 65.4173 176.114 65.1663C176.012 64.9153 176.142 64.6913 176.291 64.3443C176.428 64.0253 176.55 63.7003 176.674 63.3763C176.908 62.7213 177.117 62.0573 177.269 61.3773C177.425 60.6993 177.536 60.0043 177.531 59.3043C177.344 59.9743 177.108 60.6193 176.892 61.2693ZM182.241 66.7633C181.968 66.9853 181.702 67.2073 181.423 67.4093C180.866 67.8223 180.296 68.1823 179.626 68.4973C180 68.5463 180.382 68.4723 180.734 68.3473C181.091 68.2243 181.42 68.0343 181.723 67.8153C182.32 67.3633 182.81 66.7723 183.076 66.0743C182.775 66.3003 182.512 66.5383 182.241 66.7633ZM172.642 56.1363C172.852 56.1123 173.068 56.0773 173.319 56.0533C173.443 56.0363 173.577 56.0273 173.72 56.0043C173.864 55.9853 174.012 55.9753 174.187 55.9243C174.105 55.7713 173.995 55.6533 173.879 55.5343C173.752 55.4433 173.622 55.3343 173.472 55.2743C173.175 55.1373 172.827 55.0913 172.485 55.1383C172.143 55.1933 171.816 55.3563 171.575 55.5953C171.34 55.8363 171.17 56.1483 171.184 56.5023C171.829 56.2873 172.223 56.2053 172.642 56.1363ZM181.276 54.1473C181.589 54.1203 181.892 54.0953 182.198 54.0533C182.503 54.0093 182.813 53.9653 183.132 53.8853C183.452 53.8063 183.78 53.7203 184.135 53.5413C183.822 53.2993 183.481 53.1723 183.132 53.0913C182.781 53.0223 182.421 53.0003 182.062 53.0533C181.706 53.1023 181.35 53.2103 181.027 53.3963C180.712 53.5883 180.399 53.8413 180.26 54.2223C180.646 54.1863 180.961 54.1733 181.276 54.1473ZM182.205 56.7093C181.879 56.7903 181.801 57.6013 182.029 58.5213C182.258 59.4413 182.707 60.1203 183.032 60.0393C183.358 59.9593 183.436 59.1483 183.208 58.2283C182.98 57.3083 182.531 56.6293 182.205 56.7093ZM174.289 60.0163C174.509 60.9003 174.5 61.6623 174.268 61.7193C174.038 61.7773 173.674 61.1073 173.454 60.2243C173.234 59.3413 173.244 58.5783 173.475 58.5213C173.705 58.4643 174.07 59.1333 174.289 60.0163Z" fill="#232D4B"/>
<path fill-rule="evenodd" clip-rule="evenodd" d="M195.435 46.5984C194.411 43.7024 191.411 42.9064 191.411 42.9064C188.737 38.3624 183.592 38.5834 181.02 38.6944C179.119 38.7764 175.625 40.0164 175.625 40.0164L173.349 40.5744C172.581 40.7634 168.647 41.8214 168.647 41.8214C168.402 41.8204 168.215 42.0374 168.246 42.2814C168.352 43.1224 169.241 43.6604 169.241 43.6604C169.241 43.6604 166.106 48.0744 167.851 52.8394C168.411 54.3674 168.953 54.7444 170.043 55.4214C169.692 51.8684 170.433 50.6474 171.173 49.4264C171.903 50.0694 173.105 51.1134 174.499 51.3444C174.791 51.3924 174.974 51.0364 174.76 50.8334C174.295 50.3904 173.653 49.7504 173.102 49.1034C173.199 49.0734 179.367 52.6754 183.775 52.0564C183.775 52.0564 184.792 51.7554 185.126 51.2044C185.867 49.9834 185.347 48.5204 184.775 47.6514C184.867 47.6814 189.661 50.6134 189.381 57.9594C189.378 58.0374 189.375 58.3864 189.501 58.4504C189.674 58.5384 189.992 58.3304 189.992 58.3304C189.992 58.3304 190.381 53.5564 193.925 55.2864C194.671 51.6574 197.127 51.3824 195.435 46.5984Z" fill="#232D4B"/>
<path fill-rule="evenodd" clip-rule="evenodd" d="M242.877 94.234C246.387 99.842 250.358 108.729 252.982 118.896C254.742 125.715 252.249 128.422 241.257 130.621L194.356 138.682C191.425 140.148 186.344 141.061 186.344 141.061C186.344 141.061 178.822 142.346 178.601 142.346H168.708C168.708 142.346 162.112 141.613 162.978 139.354L166.51 130.621C167.975 121.827 181.166 120.361 181.166 120.361C204.728 117.416 229.164 111.449 233.189 109.399C236.127 107.903 230.997 100.575 230.997 100.575C230.997 100.575 233.929 96.911 236.86 95.445C239.791 93.98 242.509 93.645 242.877 94.234Z" fill="white"/>
<path fill-rule="evenodd" clip-rule="evenodd" d="M231.455 100.597C232.17 101.663 234.972 106.042 234.379 108.416C234.23 109.015 233.886 109.456 233.356 109.726C229.26 111.812 205.002 117.751 181.211 120.725C181.077 120.741 168.273 122.264 166.871 130.681L166.849 130.759L163.317 139.492C163.234 139.708 163.25 139.905 163.37 140.103C164.057 141.229 167.485 141.842 168.748 141.982L178.6 141.98C178.865 141.958 183.342 141.202 186.282 140.7C186.33 140.691 191.342 139.779 194.192 138.354L194.294 138.321L241.194 130.26C247.66 128.967 250.999 127.496 252.349 125.345C253.29 123.846 253.375 121.886 252.627 118.988C250.295 109.953 246.536 100.774 242.57 94.4339C242.281 94.1599 239.997 94.2859 237.023 95.7739C234.594 96.9879 232.119 99.8079 231.455 100.597ZM178.6 142.713H168.708C168.166 142.655 163.741 142.119 162.745 140.484C162.506 140.094 162.469 139.658 162.635 139.223L166.154 130.521C166.789 126.813 169.586 123.818 174.244 121.856C177.734 120.387 180.988 120.012 181.125 119.997C204.436 117.083 229.072 111.086 233.024 109.073C233.361 108.902 233.572 108.629 233.67 108.239C234.153 106.3 231.687 102.201 230.697 100.786L230.54 100.561L230.711 100.346C230.833 100.195 233.726 96.6019 236.696 95.1179C239.278 93.8269 242.58 93.0679 243.187 94.0399C247.192 100.44 250.986 109.698 253.337 118.804C254.138 121.914 254.026 124.052 252.969 125.734C251.482 128.104 248.109 129.624 241.328 130.98L194.471 139.034C191.52 140.492 186.617 141.385 186.409 141.422C183.585 141.904 178.82 142.713 178.6 142.713Z" fill="#232D4B"/>
<path fill-rule="evenodd" clip-rule="evenodd" d="M181.166 141.98H178.289C177.657 141.98 177.108 141.551 176.955 140.938L176.832 140.28C176.543 138.736 176.527 137.167 176.786 135.617L177.14 133.493C177.173 133.292 177.367 133.157 177.562 133.191C177.762 133.224 177.896 133.413 177.863 133.613L177.509 135.738C177.265 137.203 177.279 138.686 177.552 140.146L177.671 140.782C177.737 141.047 177.994 141.247 178.289 141.247H181.166C185.24 141.247 187.395 139.853 187.395 137.217C187.395 136.579 187.263 136.148 187.015 135.973C186.765 135.797 186.425 135.915 186.421 135.915C186.231 135.982 186.021 135.884 185.953 135.696C185.884 135.507 185.978 135.299 186.166 135.228C186.422 135.133 186.973 135.053 187.428 135.368C187.892 135.689 188.127 136.311 188.127 137.217C188.127 138.996 187.223 141.98 181.166 141.98Z" fill="#232D4B"/>
<path fill-rule="evenodd" clip-rule="evenodd" d="M173.838 141.98C173.744 141.98 173.651 141.944 173.578 141.873C172.779 141.073 172.738 138.464 172.738 137.95L173.474 132.042C173.499 131.839 173.686 131.698 173.883 131.724C174.084 131.749 174.226 131.932 174.201 132.133L173.468 137.996C173.471 139.024 173.642 140.899 174.097 141.355C174.239 141.498 174.239 141.73 174.097 141.873C174.025 141.944 173.932 141.98 173.838 141.98Z" fill="#232D4B"/>
<path fill-rule="evenodd" clip-rule="evenodd" d="M170.172 141.98C170.078 141.98 169.985 141.944 169.913 141.873C169.512 141.471 169.258 140.607 169.136 139.234C169.072 138.518 169.096 137.772 169.203 137.019L169.81 132.769C169.838 132.567 170.026 132.43 170.224 132.457C170.424 132.486 170.564 132.671 170.535 132.872L169.929 137.123C169.828 137.82 169.808 138.509 169.866 139.17C170.008 140.772 170.309 141.231 170.432 141.355C170.574 141.498 170.574 141.73 170.432 141.873C170.359 141.944 170.266 141.98 170.172 141.98Z" fill="#232D4B"/>
<path fill-rule="evenodd" clip-rule="evenodd" d="M181.898 137.583H180.432C180.23 137.583 180.066 137.419 180.066 137.217C180.066 137.014 180.23 136.851 180.432 136.851H181.898C185.223 136.851 185.908 133.619 185.936 133.481C185.976 133.281 186.176 133.153 186.367 133.193C186.565 133.233 186.694 133.426 186.654 133.625C186.646 133.665 185.817 137.583 181.898 137.583Z" fill="#232D4B"/>
<path fill-rule="evenodd" clip-rule="evenodd" d="M166.508 141.98C166.414 141.98 166.321 141.944 166.249 141.873C165.418 141.042 165.409 140.184 165.409 140.148L166.144 130.594C166.158 130.391 166.358 130.232 166.536 130.256C166.738 130.272 166.889 130.448 166.873 130.649L166.141 140.176H166.142C166.143 140.176 166.166 140.753 166.768 141.355C166.91 141.498 166.91 141.73 166.768 141.873C166.695 141.944 166.602 141.98 166.508 141.98Z" fill="#232D4B"/>
<path fill-rule="evenodd" clip-rule="evenodd" d="M174.57 110.102C171.611 116.019 163.578 132.087 158.427 138.973C154.21 144.613 104.219 145.277 104.219 145.277C102.665 144.43 97.6239 137.216 99.0899 133.552L104.219 128.423C106.418 126.224 148.922 124.026 151.852 119.629C153.681 116.886 162.845 101.308 162.845 101.308C162.845 101.308 167.242 100.576 171.638 104.973C174.229 107.563 175.302 108.637 174.57 110.102Z" fill="white"/>
<path fill-rule="evenodd" clip-rule="evenodd" d="M99.4039 133.756C98.1109 137.233 102.873 143.972 104.317 144.909C105.547 144.891 117.473 144.693 129.719 143.874C151.109 142.443 156.978 140.299 158.134 138.753C163.265 131.893 171.24 115.943 174.242 109.938C174.831 108.76 174.079 107.93 171.38 105.231C167.647 101.498 163.887 101.585 163.067 101.652C162.097 103.301 153.872 117.26 152.158 119.832C150.466 122.369 137.929 124.031 121.718 125.939C113.64 126.889 105.288 127.872 104.478 128.681L99.4039 133.756ZM104.129 145.645L104.044 145.599C102.228 144.61 97.2119 137.26 98.7499 133.416L98.8309 133.293L103.961 128.163C104.903 127.22 110.977 126.465 121.633 125.211C133.566 123.806 149.909 121.883 151.548 119.425C153.349 116.722 162.437 101.278 162.529 101.122L162.616 100.974L162.785 100.946C162.971 100.914 167.42 100.235 171.898 104.713C174.542 107.357 175.749 108.563 174.898 110.266C171.887 116.286 163.89 132.279 158.721 139.192C156.905 141.62 147.163 143.442 129.766 144.605C116.881 145.467 104.349 145.642 104.224 145.643L104.129 145.645Z" fill="#232D4B"/>
<path fill-rule="evenodd" clip-rule="evenodd" d="M230.264 100.209C230.15 100.209 230.037 100.156 229.965 100.056C226.377 95.031 222.743 92.096 222.706 92.068C222.548 91.941 222.524 91.711 222.65 91.553C222.777 91.395 223.006 91.371 223.164 91.495C223.202 91.525 226.91 94.518 230.562 99.629C230.68 99.794 230.642 100.023 230.477 100.141C230.412 100.187 230.337 100.209 230.264 100.209Z" fill="#232D4B"/>
<path fill-rule="evenodd" clip-rule="evenodd" d="M93.2155 94.3462H147.928C148.736 94.3462 149.447 94.8742 149.682 95.6472L163.549 141.411C163.783 142.184 164.495 142.712 165.303 142.712H189.818C191.113 142.712 192 144.021 191.519 145.224C191.24 145.92 190.567 146.376 189.818 146.376H109.564C108.778 146.376 108.08 145.875 107.828 145.131L91.4805 96.7642C91.0785 95.5772 91.9615 94.3462 93.2155 94.3462Z" fill="#0937B2"/>
<path fill-rule="evenodd" clip-rule="evenodd" d="M102.754 134.285H105.686C108.616 134.285 108.616 137.216 106.418 137.216H103.487" fill="white"/>
<path fill-rule="evenodd" clip-rule="evenodd" d="M106.418 137.582H103.486C103.284 137.582 103.12 137.418 103.12 137.216C103.12 137.013 103.284 136.85 103.486 136.85H106.418C107.247 136.85 107.619 136.376 107.619 135.908C107.619 135.602 107.467 135.311 107.193 135.087C106.843 134.802 106.32 134.651 105.686 134.651H102.754C102.552 134.651 102.388 134.487 102.388 134.285C102.388 134.082 102.552 133.918 102.754 133.918H105.686C106.491 133.918 107.173 134.125 107.655 134.519C108.098 134.879 108.352 135.385 108.352 135.908C108.352 136.74 107.688 137.582 106.418 137.582Z" fill="#232D4B"/>
<path fill-rule="evenodd" clip-rule="evenodd" d="M103.487 140.147H108.616C111.548 140.147 111.548 143.078 109.349 143.078H103.487" fill="white"/>
<path fill-rule="evenodd" clip-rule="evenodd" d="M109.349 143.445H103.486C103.284 143.445 103.12 143.281 103.12 143.079C103.12 142.876 103.284 142.712 103.486 142.712H109.349C110.178 142.712 110.549 142.239 110.549 141.77C110.549 141.465 110.398 141.174 110.123 140.95C109.773 140.665 109.251 140.514 108.616 140.514H103.486C103.284 140.514 103.12 140.35 103.12 140.147C103.12 139.945 103.284 139.781 103.486 139.781H108.616C109.421 139.781 110.103 139.988 110.586 140.382C111.029 140.742 111.283 141.248 111.283 141.77C111.283 142.603 110.619 143.445 109.349 143.445Z" fill="#232D4B"/>
<path fill-rule="evenodd" clip-rule="evenodd" d="M105.685 143.079H109.48C111.648 143.079 111.648 145.247 110.022 145.247H105.685" fill="white"/>
<path fill-rule="evenodd" clip-rule="evenodd" d="M110.022 145.614H105.685C105.482 145.614 105.319 145.45 105.319 145.247C105.319 145.045 105.482 144.881 105.685 144.881H110.022C110.57 144.881 110.815 144.579 110.815 144.28C110.815 144.083 110.715 143.893 110.535 143.747C110.366 143.61 110.046 143.446 109.48 143.446H105.685C105.482 143.446 105.319 143.281 105.319 143.079C105.319 142.877 105.482 142.713 105.685 142.713H109.48C110.098 142.713 110.623 142.874 110.998 143.178C111.347 143.463 111.547 143.864 111.547 144.28C111.547 144.943 111.024 145.614 110.022 145.614Z" fill="#232D4B"/>
<path fill-rule="evenodd" clip-rule="evenodd" d="M102.021 137.216H107.883C110.815 137.216 110.815 140.148 108.616 140.148H102.021" fill="white"/>
<path fill-rule="evenodd" clip-rule="evenodd" d="M108.616 140.514H102.021C101.818 140.514 101.654 140.35 101.654 140.147C101.654 139.945 101.818 139.781 102.021 139.781H108.616C109.446 139.781 109.817 139.308 109.817 138.839C109.817 138.534 109.666 138.243 109.391 138.019C109.041 137.734 108.519 137.582 107.884 137.582H102.021C101.818 137.582 101.654 137.419 101.654 137.216C101.654 137.014 101.818 136.85 102.021 136.85H107.884C108.689 136.85 109.371 137.057 109.853 137.451C110.296 137.811 110.55 138.317 110.55 138.839C110.55 139.672 109.886 140.514 108.616 140.514Z" fill="#232D4B"/>
<path fill-rule="evenodd" clip-rule="evenodd" d="M127.701 116.697C128.354 118.586 127.064 120.117 124.821 120.117C122.578 120.117 120.23 118.586 119.578 116.697C118.925 114.808 120.214 113.276 122.457 113.276C124.7 113.276 127.048 114.808 127.701 116.697Z" fill="white"/>
<path d="M124.436 141.979H114.112" stroke="white" stroke-linecap="round"/>
<path d="M161.746 141.979H130.152" stroke="white" stroke-linecap="round"/>
<path fill-rule="evenodd" clip-rule="evenodd" d="M118.324 85.1407C117.877 82.9997 117.43 80.8587 116.983 78.7177C116.84 78.0257 115.779 78.3187 115.924 79.0097C116.37 81.1507 116.817 83.2917 117.263 85.4327C117.408 86.1247 118.468 85.8317 118.324 85.1407Z" fill="#0937B2"/>
<path fill-rule="evenodd" clip-rule="evenodd" d="M155.668 94.6504C156.531 93.2334 157.395 91.8164 158.258 90.3984C158.412 90.1454 158.405 89.8204 158.151 89.6284C157.934 89.4634 157.537 89.4794 157.382 89.7344C156.519 91.1514 155.655 92.5684 154.792 93.9864C154.638 94.2394 154.644 94.5644 154.897 94.7564C155.116 94.9214 155.513 94.9054 155.668 94.6504Z" fill="#0937B2"/>
<path fill-rule="evenodd" clip-rule="evenodd" d="M158.813 261.795C158.641 261.795 158.487 261.672 158.455 261.496C157.831 258.172 143.296 179.891 153.363 161.588C156.77 155.395 168.981 151.509 189.659 150.041C204.985 148.953 219.513 149.668 219.657 149.674C219.859 149.685 220.014 149.857 220.003 150.059C219.994 150.26 219.851 150.432 219.62 150.406C219.044 150.378 161.864 147.653 154.005 161.942C149.905 169.397 149.495 188.938 152.819 218.451C155.334 240.796 159.136 261.158 159.174 261.361C159.211 261.56 159.081 261.752 158.881 261.789C158.859 261.793 158.836 261.795 158.813 261.795Z" fill="#232D4B"/>
<path fill-rule="evenodd" clip-rule="evenodd" d="M139.649 278.909C140.815 282.058 140.339 283.054 138.804 284.377C136.909 286.011 133.076 287.848 128.854 290.262C124.607 292.688 119.793 295.439 115.308 298.2C113.877 299.079 113.815 300.171 113.415 301.227C112.709 303.086 113.4 303.777 115.311 303.777H170.548C171.423 303.777 171.881 302.306 171.839 301.557C171.64 297.977 171.392 293.52 172.123 290.232C172.594 288.111 172.524 286.612 171.909 285.65C171.202 284.543 169.854 284.248 168.426 283.937C168.128 283.872 167.831 283.806 167.541 283.735C166.741 283.536 166.024 284.936 165.191 286.558C163.713 289.435 161.69 293.38 157.164 292.019C151.714 290.385 152.764 284.326 153.608 279.458C153.889 277.837 138.76 276.513 139.649 278.909Z" fill="white"/>
<path fill-rule="evenodd" clip-rule="evenodd" d="M139.6 278.909C140.767 282.058 140.29 283.054 138.755 284.377C136.86 286.011 133.028 287.848 128.806 290.262C124.558 292.688 119.745 295.439 115.259 298.2C113.829 299.079 113.766 300.171 113.366 301.227C112.661 303.086 113.351 303.777 115.262 303.777H170.499C171.375 303.777 171.832 302.306 171.791 301.557C171.591 297.977 171.343 293.52 172.074 290.232C172.545 288.111 172.475 286.612 171.861 285.65C171.154 284.543 169.805 284.248 168.378 283.937C168.079 283.872 167.783 283.806 167.493 283.735C166.692 283.536 165.976 284.936 165.142 286.558C163.664 289.435 161.642 293.38 157.116 292.019C151.665 290.385 152.716 284.326 153.56 279.458C153.84 277.837 138.712 276.513 139.6 278.909ZM169.118 309.993H115.262C114.359 309.993 113.561 309.502 112.954 308.574C111.866 306.908 111.582 304.047 112.337 302.327C112.504 301.946 112.594 301.526 112.691 301.081C112.936 299.94 113.215 298.646 114.897 297.611C119.392 294.846 124.211 292.091 128.463 289.661C132.673 287.256 136.31 285.178 138.372 283.803C140.414 282.441 136.008 278.15 138.218 276.837C140.464 275.503 147.889 276.146 152.889 277.43C154.74 277.905 155.488 278.219 155.488 279.6C155.488 280.855 152.451 289.899 157.314 291.358C161.288 292.55 163.084 289.053 164.528 286.243C165.496 284.359 166.333 282.737 167.66 283.064C167.943 283.135 168.234 283.198 168.526 283.262C170.028 283.59 171.581 283.93 172.443 285.277C173.162 286.403 173.262 288.073 172.748 290.382C172.038 293.577 172.284 297.981 172.481 301.519C172.523 302.271 172.562 302.976 172.588 303.61C172.596 303.796 172.612 304.01 172.628 304.242C172.732 305.648 172.887 307.772 171.727 309.021C171.127 309.666 170.249 309.993 169.118 309.993Z" fill="#34D0EC"/>
<path fill-rule="evenodd" clip-rule="evenodd" d="M131.681 288.111C131.681 288.111 135.455 286.507 142.363 290.652C142.363 290.652 136.946 286.269 134.078 286.429C132.693 286.507 131.681 288.111 131.681 288.111Z" fill="#0937B2"/>
<path fill-rule="evenodd" clip-rule="evenodd" d="M125.785 291.343C125.785 291.343 129.239 289.961 136.146 294.106C136.146 294.106 130.729 289.723 127.862 289.884C126.476 289.961 125.785 291.343 125.785 291.343Z" fill="#0937B2"/>
<path fill-rule="evenodd" clip-rule="evenodd" d="M160.715 300.564C161.471 298.059 163.496 294.17 168.811 293.853C169.747 293.796 170.54 294.55 170.54 295.489V301.031C170.54 301.934 169.808 302.666 168.905 302.666H162.283C161.189 302.666 160.399 301.612 160.715 300.564Z" fill="#0937B2"/>
<path fill-rule="evenodd" clip-rule="evenodd" d="M190.214 284.039C191.38 287.188 190.904 288.184 189.369 289.507C187.474 291.141 183.641 292.978 179.419 295.392C175.172 297.818 170.358 300.569 165.873 303.329C164.443 304.209 164.38 305.3 163.98 306.357C163.274 308.216 163.965 308.907 165.876 308.907H221.113C221.989 308.907 222.446 307.436 222.404 306.687C222.205 303.106 221.957 298.65 222.688 295.362C223.159 293.241 223.089 291.742 222.474 290.779C221.767 289.673 220.419 289.378 218.991 289.067C218.693 289.002 218.396 288.936 218.107 288.864C217.306 288.666 216.589 290.066 215.756 291.688C214.278 294.565 212.256 298.509 207.729 297.149C202.279 295.514 203.329 289.456 204.173 284.588C204.454 282.967 189.325 281.643 190.214 284.039Z" fill="white"/>
<path fill-rule="evenodd" clip-rule="evenodd" d="M190.165 284.039C191.332 287.188 190.856 288.184 189.32 289.507C187.425 291.141 183.593 292.978 179.371 295.392C175.123 297.818 170.31 300.569 165.824 303.329C164.394 304.209 164.331 305.3 163.931 306.357C163.226 308.216 163.916 308.907 165.827 308.907H221.064C221.94 308.907 222.397 307.436 222.356 306.687C222.156 303.106 221.908 298.65 222.64 295.362C223.11 293.241 223.041 291.742 222.426 290.779C221.719 289.673 220.37 289.378 218.943 289.067C218.644 289.002 218.348 288.936 218.058 288.864C217.257 288.666 216.541 290.066 215.707 291.688C214.229 294.565 212.207 298.509 207.681 297.149C202.23 295.514 203.281 289.456 204.125 284.588C204.406 282.967 189.277 281.643 190.165 284.039ZM219.683 315.123H165.827C164.925 315.123 164.126 314.632 163.519 313.704C162.431 312.037 162.147 309.177 162.902 307.457C163.069 307.076 163.159 306.656 163.256 306.211C163.501 305.07 163.78 303.776 165.462 302.741C169.957 299.975 174.776 297.221 179.028 294.791C183.238 292.386 186.875 290.307 188.937 288.933C190.979 287.571 186.573 283.28 188.783 281.967C191.029 280.633 198.454 281.276 203.454 282.56C205.305 283.035 206.053 283.348 206.053 284.73C206.053 285.985 203.016 295.029 207.879 296.488C211.853 297.68 213.649 294.183 215.093 291.373C216.061 289.489 216.898 287.867 218.225 288.194C218.508 288.265 218.799 288.328 219.091 288.392C220.593 288.72 222.146 289.059 223.008 290.407C223.727 291.533 223.827 293.203 223.313 295.512C222.603 298.707 222.849 303.111 223.046 306.649C223.088 307.401 223.127 308.106 223.153 308.74C223.161 308.925 223.177 309.139 223.193 309.372C223.297 310.778 223.452 312.902 222.292 314.151C221.692 314.796 220.814 315.123 219.683 315.123Z" fill="#34D0EC"/>
<path fill-rule="evenodd" clip-rule="evenodd" d="M182.246 293.241C182.246 293.241 186.02 291.637 192.929 295.782C192.929 295.782 187.511 291.399 184.643 291.559C183.258 291.637 182.246 293.241 182.246 293.241Z" fill="#0937B2"/>
<path fill-rule="evenodd" clip-rule="evenodd" d="M176.349 296.472C176.349 296.472 179.803 295.091 186.71 299.235C186.71 299.235 181.293 294.853 178.426 295.013C177.04 295.091 176.349 296.472 176.349 296.472Z" fill="#0937B2"/>
<path fill-rule="evenodd" clip-rule="evenodd" d="M211.279 305.693C212.035 303.188 214.06 299.299 219.375 298.981C220.311 298.925 221.104 299.679 221.104 300.618V306.16C221.104 307.063 220.372 307.795 219.469 307.795H212.848C211.753 307.795 210.963 306.741 211.279 305.693Z" fill="#0937B2"/>
<path fill-rule="evenodd" clip-rule="evenodd" d="M188.656 276.818L190.326 282.681L188.656 276.818Z" fill="white"/>
<path fill-rule="evenodd" clip-rule="evenodd" d="M190.326 283.181C190.108 283.181 189.908 283.037 189.846 282.818L188.176 276.955C188.099 276.69 188.254 276.413 188.519 276.338C188.787 276.256 189.061 276.416 189.137 276.682L190.806 282.544C190.883 282.81 190.728 283.086 190.463 283.161C190.417 283.175 190.371 283.181 190.326 283.181Z" fill="#232D4B"/>
<path fill-rule="evenodd" clip-rule="evenodd" d="M212.591 276.818L216.341 289.642L212.591 276.818Z" fill="white"/>
<path fill-rule="evenodd" clip-rule="evenodd" d="M216.34 290.143C216.123 290.143 215.924 290.001 215.861 289.784L212.111 276.959C212.032 276.694 212.185 276.416 212.449 276.339C212.718 276.259 212.992 276.414 213.069 276.678L216.819 289.502C216.898 289.768 216.745 290.045 216.481 290.122C216.434 290.136 216.386 290.143 216.34 290.143Z" fill="#232D4B"/>
<path fill-rule="evenodd" clip-rule="evenodd" d="M191.588 276.818L193.257 282.681L191.588 276.818Z" fill="white"/>
<path fill-rule="evenodd" clip-rule="evenodd" d="M193.256 283.181C193.038 283.181 192.838 283.037 192.776 282.818L191.107 276.955C191.03 276.69 191.185 276.413 191.45 276.338C191.716 276.256 191.991 276.416 192.068 276.682L193.736 282.544C193.813 282.81 193.658 283.086 193.393 283.161C193.347 283.175 193.301 283.181 193.256 283.181Z" fill="#232D4B"/>
<path fill-rule="evenodd" clip-rule="evenodd" d="M140.29 270.223L141.96 276.085L140.29 270.223Z" fill="white"/>
<path fill-rule="evenodd" clip-rule="evenodd" d="M141.96 276.585C141.742 276.585 141.542 276.441 141.48 276.222L139.81 270.359C139.733 270.094 139.888 269.817 140.153 269.742C140.423 269.66 140.695 269.82 140.771 270.086L142.44 275.948C142.517 276.214 142.362 276.49 142.097 276.565C142.051 276.579 142.005 276.585 141.96 276.585Z" fill="#232D4B"/>
<path fill-rule="evenodd" clip-rule="evenodd" d="M166.51 277.185L167.975 283.047L166.51 277.185Z" fill="white"/>
<path fill-rule="evenodd" clip-rule="evenodd" d="M167.974 283.547C167.749 283.547 167.545 283.396 167.489 283.168L166.024 277.306C165.957 277.038 166.12 276.767 166.388 276.699C166.657 276.632 166.928 276.795 166.995 277.064L168.459 282.926C168.526 283.193 168.363 283.465 168.095 283.532C168.054 283.542 168.014 283.547 167.974 283.547Z" fill="#232D4B"/>
<path fill-rule="evenodd" clip-rule="evenodd" d="M164.31 278.65L165.41 282.681L164.31 278.65Z" fill="white"/>
<path fill-rule="evenodd" clip-rule="evenodd" d="M165.41 283.181C165.19 283.181 164.988 283.035 164.928 282.813L163.828 278.783C163.756 278.516 163.912 278.241 164.179 278.168C164.446 278.098 164.721 278.254 164.793 278.519L165.892 282.549C165.965 282.816 165.808 283.091 165.542 283.163C165.498 283.175 165.453 283.181 165.41 283.181Z" fill="#232D4B"/>
<path fill-rule="evenodd" clip-rule="evenodd" d="M163.212 100.575C163.154 100.575 163.097 100.562 163.043 100.533C162.863 100.441 162.793 100.22 162.887 100.04C163.418 99.0162 163.949 98.0292 164.48 97.0742C164.578 96.8972 164.803 96.8352 164.979 96.9322C165.155 97.0312 165.219 97.2542 165.121 97.4302C164.594 98.3802 164.066 99.3622 163.536 100.378C163.472 100.504 163.343 100.575 163.212 100.575Z" fill="#232D4B"/>
<path fill-rule="evenodd" clip-rule="evenodd" d="M166.56 94.5563C166.496 94.5563 166.431 94.5393 166.373 94.5043C166.199 94.4013 166.142 94.1763 166.246 94.0023C174.474 80.1773 181.966 74.3273 182.041 74.2693C182.201 74.1473 182.43 74.1763 182.555 74.3373C182.678 74.4973 182.648 74.7273 182.488 74.8513C182.414 74.9073 175.025 80.6853 166.875 94.3773C166.806 94.4923 166.685 94.5563 166.56 94.5563Z" fill="#232D4B"/>
<path fill-rule="evenodd" clip-rule="evenodd" d="M236.86 148.941C236.86 148.941 238.325 154.804 250.783 154.804L236.86 148.941Z" fill="white"/>
<path fill-rule="evenodd" clip-rule="evenodd" d="M250.783 155.171C238.184 155.171 236.567 149.282 236.504 149.031C236.455 148.835 236.574 148.636 236.771 148.587C236.964 148.538 237.165 148.656 237.215 148.851C237.229 148.907 238.812 154.438 250.783 154.438C250.986 154.438 251.149 154.602 251.149 154.805C251.149 155.007 250.986 155.171 250.783 155.171Z" fill="#232D4B"/>
<path fill-rule="evenodd" clip-rule="evenodd" d="M217.069 141.614L217.811 144.543L217.069 141.614Z" fill="white"/>
<path fill-rule="evenodd" clip-rule="evenodd" d="M217.811 144.91C217.647 144.91 217.499 144.8 217.457 144.634L216.713 141.704C216.664 141.508 216.782 141.309 216.978 141.259C217.174 141.206 217.374 141.328 217.423 141.524L218.166 144.453C218.216 144.649 218.097 144.849 217.901 144.898C217.872 144.906 217.84 144.91 217.811 144.91Z" fill="#232D4B"/>
<path fill-rule="evenodd" clip-rule="evenodd" d="M225.783 141.632L226.684 145.258L225.783 141.632Z" fill="white"/>
<path fill-rule="evenodd" clip-rule="evenodd" d="M226.684 145.625C226.52 145.625 226.371 145.513 226.329 145.347L225.427 141.721C225.378 141.524 225.497 141.325 225.694 141.277C225.889 141.229 226.089 141.348 226.138 141.543L227.039 145.17C227.088 145.367 226.969 145.565 226.773 145.614C226.743 145.621 226.713 145.625 226.684 145.625Z" fill="#232D4B"/>
<path fill-rule="evenodd" clip-rule="evenodd" d="M233.382 191.018L214.382 225.018L233.382 191.018Z" fill="white"/>
<path fill-rule="evenodd" clip-rule="evenodd" d="M214.382 225.518C214.299 225.518 214.215 225.497 214.138 225.455C213.897 225.32 213.811 225.015 213.945 224.774L232.945 190.774C233.08 190.531 233.386 190.447 233.626 190.581C233.867 190.716 233.953 191.021 233.819 191.262L214.819 225.262C214.727 225.426 214.557 225.518 214.382 225.518Z" fill="#232D4B"/>
<path fill-rule="evenodd" clip-rule="evenodd" d="M226.93 313.494C226.654 313.494 226.43 313.27 226.43 312.994V242.017C226.43 241.741 226.654 241.517 226.93 241.517C227.206 241.517 227.43 241.741 227.43 242.017V312.994C227.43 313.27 227.206 313.494 226.93 313.494Z" fill="#232D4B"/>
<path fill-rule="evenodd" clip-rule="evenodd" d="M265.382 313.018H244.382V274.278C244.382 271.925 246.289 270.018 248.642 270.018H261.122C263.475 270.018 265.382 271.925 265.382 274.278V313.018Z" fill="white"/>
<path fill-rule="evenodd" clip-rule="evenodd" d="M244.882 312.518H264.882V274.278C264.882 272.205 263.195 270.518 261.122 270.518H248.642C246.569 270.518 244.882 272.205 244.882 274.278V312.518ZM265.882 313.518H243.882V274.278C243.882 271.653 246.017 269.518 248.642 269.518H261.122C263.747 269.518 265.882 271.653 265.882 274.278V313.518Z" fill="#232D4B"/>
<path fill-rule="evenodd" clip-rule="evenodd" d="M179.163 47.9615C176.741 47.9615 174.573 46.5855 174.446 46.5035L174.718 46.0835C174.758 46.1095 178.848 48.7005 181.851 46.6775L182.131 47.0925C181.181 47.7325 180.15 47.9615 179.163 47.9615Z" fill="white"/>
<path fill-rule="evenodd" clip-rule="evenodd" d="M177.016 44.7101C175.742 44.7101 175.235 44.2251 175.204 44.1941L175.555 43.8381C175.565 43.8461 176.523 44.7071 179.302 43.7801L179.46 44.2551C178.441 44.5951 177.637 44.7101 177.016 44.7101Z" fill="white"/>
</svg>
