<svg width="109" height="40" viewBox="0 0 109 40" fill="none" xmlns="http://www.w3.org/2000/svg">
<path fill-rule="evenodd" clip-rule="evenodd" d="M87.5822 33.3139V24.0975C87.5822 21.9805 86.4843 21.2564 84.792 21.2564H84.7441C82.8215 21.279 81.3403 22.999 81.3403 24.9323V33.3139H77.3574V18.0687H81.3403V20.0575C81.9315 18.8236 84.1641 17.6882 86.6392 17.6882C89.9635 17.6882 91.5661 19.5805 91.5661 22.5477V33.3139H87.5822ZM94.554 25.6718C94.554 20.999 97.9099 17.6893 102.585 17.6893C105.69 17.6893 107.576 19.0431 108.577 20.4318L105.972 22.8964C105.249 21.8246 104.152 21.2564 102.771 21.2564C100.36 21.2564 98.6602 23.0257 98.6602 25.678C98.6602 28.3303 100.354 30.1293 102.773 30.1293C104.152 30.1293 105.249 29.4985 105.973 28.4913L108.577 30.9241C107.576 32.3426 105.69 33.6985 102.585 33.6985C97.9099 33.6882 94.554 30.3764 94.554 25.6718ZM44.9756 31.32L46.7004 28.5128C47.7984 29.5518 50.0564 30.5959 51.9413 30.5959C53.6671 30.5959 54.4817 29.9046 54.4817 28.9579C54.4817 27.965 53.088 27.6802 51.3973 27.3348C48.79 26.8021 45.4761 26.125 45.4761 22.4841C45.4761 19.9282 47.7015 17.6892 51.6854 17.6892C54.2584 17.6892 56.2983 18.5713 57.805 19.7723L56.2075 22.5159C55.2972 21.5354 53.5713 20.7487 51.7231 20.7487C50.2796 20.7487 49.3377 21.4123 49.3377 22.2646C49.3377 23.1234 50.62 23.3872 52.2151 23.7155C54.8398 24.2557 58.3116 24.9702 58.3116 28.7959C58.3116 31.5723 55.9568 33.6882 51.7547 33.6882C49.1185 33.6882 46.573 32.8051 44.9756 31.32ZM61.3212 35.6769C61.6668 35.838 62.1989 35.9292 62.5771 35.9292C63.6118 35.9292 64.304 35.6441 64.6822 34.8236L65.2459 33.5333L59.0938 18.0687H63.36L67.3123 28.6739L71.2646 18.0687H75.5614L68.4408 35.8041C67.3123 38.678 65.304 39.439 62.7015 39.4974C62.2325 39.4974 61.2243 39.4 60.7248 39.278L61.3202 35.678L61.3212 35.6769Z" fill="#34D0EC"/>
<path fill-rule="evenodd" clip-rule="evenodd" d="M53.081 4.70463L55.4032 13.8462H58.3962L62.167 0.5354H58.9926L56.6917 10.1539L54.1942 0.5354H51.9943L49.4753 10.1539L47.1531 0.5354H44L47.7871 13.8462H50.7801L53.081 4.70463ZM67.0779 3.97028C63.9249 3.97028 62.0186 6.28515 62.0186 9.01848C62.0186 11.7723 63.9249 14.0872 67.0779 14.0872C70.2473 14.0872 72.1536 11.7723 72.1536 9.01848C72.1536 6.28515 70.2524 3.97028 67.0779 3.97028ZM67.0779 6.22669C68.6427 6.22669 69.5378 7.5231 69.5378 9.01848H69.5388C69.5388 10.5344 68.6427 11.8318 67.0779 11.8318C65.5111 11.8318 64.6395 10.5344 64.6395 9.01848C64.6395 7.5231 65.5111 6.22669 67.0779 6.22669ZM74.012 13.8462V4.20617H76.531V5.52515C76.7022 4.57643 78.3955 3.97028 79.5892 3.97028V6.44617C79.4078 6.40925 79.1723 6.38771 78.896 6.38771H78.8695C77.5494 6.4031 76.531 7.81335 76.531 8.92105V13.8513H74.013V13.8462H74.012ZM87.3597 13.8462L84.8183 10.1323L83.6684 11.3703V13.8462H81.1494V0.5354H83.6684V8.49848L87.3016 4.20617H90.3955L86.6084 8.57848L90.5179 13.8462H87.3597ZM94.2734 13.8462H97.0901V0.5354H94.2734V13.8462ZM106.112 13.8462V8.01643C106.112 6.67694 105.42 6.22155 104.348 6.22155H104.318C103.092 6.23694 102.167 7.36822 102.167 8.60104V13.8462H99.6458V4.20617H102.166V5.46668C102.351 4.68412 103.95 3.9713 105.517 3.9713C107.62 3.9713 108.631 5.16617 108.631 7.04207V13.8462H106.113H106.112Z" fill="#0937B2"/>
<path fill-rule="evenodd" clip-rule="evenodd" d="M34.096 19.6499H25.1975C24.3452 19.6499 23.5465 20.067 23.0578 20.7641L19.4519 25.8109C18.9512 26.52 18.1406 26.943 17.2704 26.943H7.68051C6.82821 26.943 6.02954 27.3595 5.53485 28.0567L0.176643 35.6722C-0.27037 36.3038 0.182604 37.1737 0.957427 37.1737H22.1637C23.0339 37.1737 23.8445 36.7507 24.3452 36.0416L34.8709 21.1574C35.3179 20.5198 34.8649 19.6499 34.096 19.6499Z" fill="#34D0EC"/>
<path fill-rule="evenodd" clip-rule="evenodd" d="M22.5181 12.2387H32.4232C33.2003 12.2387 33.9296 11.863 34.3779 11.2249L39.8236 3.5027C40.2719 2.87061 39.8176 2 39.0405 2H17.6104C16.8452 2 16.1219 2.36971 15.6796 3.0018L5.00334 18.1481C4.55501 18.7802 5.00931 19.6508 5.78642 19.6508H14.7171C15.566 19.6508 16.367 19.2393 16.8572 18.5417L20.5933 13.2345C21.0296 12.6143 21.747 12.2387 22.5181 12.2387Z" fill="#0937B2"/>
</svg>
